<svg xmlns="http://www.w3.org/2000/svg" width="55" height="49" viewBox="0 0 55 49"><defs><style>.a{fill:#fff;}</style></defs><title>diagram-icon</title><path class="a" d="M54.94,43a.53.53,0,0,0,0-.12.5.5,0,0,0,0-.12s0,0,0,0,0,0,0-.06a.5.5,0,0,0,0-.12l0-.12a.42.42,0,0,0,0-.1l-.06-.11s0,0,0-.06l-.05,0L54.69,42l0,0-7-5.4a.92.92,0,0,0-1.29.16A.9.9,0,0,0,46.5,38l4.89,3.77H7.29V3.58l3.8,4.86a1,1,0,0,0,.73.35.93.93,0,0,0,.57-.19.92.92,0,0,0,.16-1.29L7.1.35l0,0L7,.23l0,0-.06,0L6.77.1l-.1,0L6.55,0,6.43,0H6.32L6.2,0a.53.53,0,0,0-.12,0L6,.1l-.1.06-.06,0a.1.1,0,0,0,0,0,.3.3,0,0,0-.08.08l-.05,0-5.45,7A.91.91,0,0,0,.36,8.6a1,1,0,0,0,.56.19.91.91,0,0,0,.73-.36l3.8-4.85v39.1a.92.92,0,0,0,.92.91h45L46.5,47.36A.92.92,0,0,0,47.06,49a.93.93,0,0,0,.57-.19l7-5.41s0,0,0,0l.09-.09,0,0s0,0,0-.06l.06-.1S54.93,43,54.94,43Z" transform="translate(0 0)"/><path class="a" d="M11.41,28.7a.91.91,0,0,0,0,1.29.89.89,0,0,0,.64.26.93.93,0,0,0,.66-.27l6.62-6.72a4.37,4.37,0,0,0,6.49-1.11l9.24,6a4.42,4.42,0,1,0,8.54,1.59,4.36,4.36,0,0,0-1.21-3l4.94-8.12a4.47,4.47,0,0,0,1.72.34,4.43,4.43,0,1,0-3.22-1.39h0L40.9,25.68a4.4,4.4,0,0,0-4.81.92l-9.63-6.23a4.29,4.29,0,0,0,.06-.53,4.43,4.43,0,1,0-8.35,2ZM49.07,12a2.57,2.57,0,1,1-2.59,2.56A2.58,2.58,0,0,1,49.07,12ZM39.19,27.16a2.57,2.57,0,1,1-2.58,2.57A2.57,2.57,0,0,1,39.19,27.16Zm-17.1-9.88a2.57,2.57,0,1,1-2.58,2.57A2.57,2.57,0,0,1,22.09,17.28Z" transform="translate(0 0)"/></svg>