<svg width="36" height="24" viewBox="0 0 36 24" fill="none" xmlns="http://www.w3.org/2000/svg">
<path d="M0.782609 8.75503e-06C0.575054 2.92842e-05 0.376007 0.081591 0.229244 0.226776C0.0824806 0.371961 2.07342e-05 0.568879 -1.81274e-08 0.774202V23.2258C2.07342e-05 23.4311 0.0824806 23.628 0.229244 23.7732C0.376007 23.9184 0.575054 24 0.782609 24H35.2174C35.4249 24 35.624 23.9184 35.7708 23.7732C35.9175 23.628 36 23.4311 36 23.2258V0.774202C36 0.568879 35.9175 0.371961 35.7708 0.226776C35.624 0.081591 35.4249 2.92842e-05 35.2174 8.75503e-06H0.782609ZM2.83696 1.54839H33.163L18 15.2056L2.83696 1.54839ZM1.56522 2.50404L11.7636 11.6855L1.56522 21.4355V2.50404ZM34.4348 2.50404V21.4355L24.2364 11.6855L34.4348 2.50404ZM12.9253 12.7258L17.4742 16.8266C17.6182 16.9558 17.8056 17.0274 18 17.0274C18.1944 17.0274 18.3818 16.9558 18.5258 16.8266L23.0747 12.7258L33.2487 22.4516H2.75134L12.9253 12.7258Z" fill="#AAAC23"/>
</svg>
