<svg width="36" height="36" viewBox="0 0 36 36" fill="none" xmlns="http://www.w3.org/2000/svg">
<path d="M27.3182 36C22.5743 36 15.0391 33.2509 8.8995 27.1092C0.672967 18.8792 -2.02461 7.47465 1.53763 3.9106L5.21857 0.228871C5.52362 -0.0762907 6.01764 -0.0762907 6.32269 0.228871L13.6851 7.59338C13.8314 7.73971 13.9136 7.93864 13.9136 8.1459C13.9136 8.35316 13.8314 8.55157 13.6851 8.69842L10.0041 12.3807C9.73137 12.9816 11.3665 16.3212 15.5253 20.482C19.112 24.0695 22.3145 26.0052 23.5072 26.0052C23.6076 26.0052 23.6456 25.9885 23.6461 25.9885L27.3047 22.3229C27.451 22.1766 27.6498 22.0943 27.857 22.0943C28.0637 22.0943 28.2625 22.1766 28.4093 22.3229L35.7712 29.6879C36.0763 29.9931 36.0763 30.4873 35.7712 30.7925L32.0908 34.4747C31.0918 35.4725 29.4416 36 27.3182 36ZM5.77089 1.88591L2.64175 5.01564C-0.0469783 7.70586 2.18105 18.1793 10.0041 26.0052C15.8277 31.8308 22.8965 34.4383 27.3188 34.4383C28.995 34.4383 30.2974 34.0586 30.9861 33.3697L34.1148 30.2394L27.857 23.9789L24.7279 27.1092C24.5197 27.318 24.1381 27.5669 23.5072 27.5669C21.2141 27.5669 17.1791 24.345 14.4212 21.586C12.4097 19.5738 10.71 17.4789 9.6361 15.688C8.33729 13.5227 8.09626 12.0792 8.90002 11.2756L12.0292 8.14538L5.77089 1.88591Z" fill="#AAAC23"/>
</svg>
