<svg width="75" height="33" viewBox="0 0 75 33" fill="none" xmlns="http://www.w3.org/2000/svg">
<path d="M9.07872 3.56849V8.34288C9.07872 9.67183 8.72954 10.5701 8.02059 11.0377C7.31165 11.5053 6.07364 11.7391 4.30657 11.7391H1.29166e-06V1.87761e-07H4.29599C6.01015 1.87761e-07 7.23758 0.246103 7.97827 0.738308C8.70837 1.24282 9.07872 2.17801 9.07872 3.56849ZM6.64503 8.34288V3.50696C6.64503 2.94093 6.44398 2.54716 6.05248 2.32567C5.66097 2.10418 5.05784 2.00574 4.26425 2.00574H2.41253V9.73335H4.19018C5.12133 9.73335 5.76678 9.64722 6.11596 9.48725C6.47573 9.32729 6.64503 8.94583 6.64503 8.34288Z" transform="translate(32.9717 11.1807)" fill="white"/>
<path d="M7.66083 3.34699V5.93107C7.66083 6.49711 7.58676 6.98931 7.42804 7.38307C7.26932 7.78914 7.07886 8.09677 6.85665 8.31827C6.62386 8.53976 6.32759 8.71203 5.95724 8.83508C5.5869 8.95813 5.2483 9.03196 4.94145 9.05657C4.63459 9.08118 4.26425 9.10579 3.83041 9.10579C3.39658 9.10579 3.02624 9.09349 2.71938 9.05657C2.41253 9.01966 2.07393 8.94583 1.70358 8.83508C1.33324 8.71203 1.03696 8.53976 0.804176 8.31827C0.571388 8.09677 0.380926 7.77684 0.232789 7.38307C0.0740701 6.97701 0 6.49711 0 5.93107V3.34699C0 2.74404 0.0846487 2.22723 0.243368 1.79655C0.402086 1.36587 0.603131 1.04594 0.835918 0.812139C1.06871 0.578341 1.37556 0.406069 1.74591 0.283018C2.11625 0.159967 2.45485 0.0738306 2.75113 0.0492203C3.0474 0.0123049 3.40716 -3.75523e-07 3.83041 -3.75523e-07C4.25366 -3.75523e-07 4.61343 0.0123049 4.9097 0.0492203C5.20598 0.0738306 5.54458 0.159967 5.91492 0.283018C6.28526 0.406069 6.59212 0.590646 6.82491 0.812139C7.0577 1.04594 7.25874 1.36587 7.41746 1.79655C7.58676 2.22723 7.66083 2.74404 7.66083 3.34699ZM5.38586 6.2387V2.92862C5.38586 2.46102 5.28005 2.12879 5.079 1.9196C4.86738 1.72272 4.45471 1.62428 3.83041 1.62428C3.20612 1.62428 2.79345 1.72272 2.58183 1.9196C2.3702 2.11648 2.26439 2.44872 2.26439 2.92862V6.2387C2.26439 6.69399 2.3702 7.01392 2.57124 7.1985C2.77229 7.38307 3.18496 7.46921 3.81983 7.46921C4.45471 7.46921 4.86738 7.38307 5.06842 7.1985C5.29063 7.02623 5.38586 6.70629 5.38586 6.2387Z" transform="translate(43.6904 13.9863)" fill="white"/>
<path d="M7.65025 3.34699V5.93107C7.65025 6.49711 7.57618 6.98931 7.41746 7.38307C7.25874 7.78914 7.06828 8.09677 6.84607 8.31827C6.61329 8.53976 6.31701 8.71203 5.95725 8.83508C5.5869 8.95813 5.2483 9.03196 4.94145 9.05657C4.63459 9.08118 4.26425 9.10579 3.83042 9.10579C3.39658 9.10579 3.02624 9.09349 2.71938 9.05657C2.41253 9.01966 2.07392 8.94583 1.70358 8.83508C1.33324 8.71203 1.03697 8.53976 0.814759 8.31827C0.581972 8.09677 0.391509 7.77684 0.23279 7.38307C0.0740714 6.97701 1.29166e-06 6.49711 1.29166e-06 5.93107V3.34699C1.29166e-06 2.74404 0.08465 2.22723 0.243369 1.79655C0.402088 1.36587 0.603129 1.04594 0.835916 0.812139C1.0687 0.578341 1.37556 0.406069 1.74591 0.283018C2.11625 0.159967 2.45485 0.0738306 2.75113 0.0492203C3.0474 0.0123049 3.40717 -3.75523e-07 3.83042 -3.75523e-07C4.25367 -3.75523e-07 4.61342 0.0123049 4.9097 0.0492203C5.20597 0.0738306 5.54457 0.159967 5.91492 0.283018C6.28526 0.406069 6.59212 0.590646 6.82491 0.812139C7.0577 1.04594 7.25874 1.36587 7.41746 1.79655C7.5656 2.22723 7.65025 2.74404 7.65025 3.34699ZM5.37528 6.2387V2.92862C5.37528 2.46102 5.26946 2.12879 5.05784 1.9196C4.84621 1.72272 4.43355 1.62428 3.80925 1.62428C3.18496 1.62428 2.77229 1.72272 2.56067 1.9196C2.34904 2.11648 2.25381 2.44872 2.25381 2.92862V6.2387C2.25381 6.69399 2.35962 7.01392 2.56067 7.1985C2.76171 7.38307 3.18496 7.46921 3.80925 7.46921C4.44413 7.46921 4.8568 7.38307 5.05784 7.1985C5.26946 7.02623 5.37528 6.70629 5.37528 6.2387Z" transform="translate(52.917 13.9863)" fill="white"/>
<path d="M4.93086 2.19031H4.15843C3.53414 2.19031 3.06857 2.30106 2.75113 2.52255C2.43369 2.74404 2.27497 3.1255 2.27497 3.66693V8.93352H1.29166e-06V0.172272H2.15857V1.71041C2.16915 1.27973 2.38078 0.885969 2.80403 0.529121C3.22728 0.172272 3.66111 -3.75523e-07 4.11611 -3.75523e-07H4.93086V2.19031Z" transform="translate(62.3345 13.9854)" fill="white"/>
<path d="M6.79317 5.525V6.63246C6.79317 7.06314 6.72968 7.4446 6.58154 7.75223C6.44399 8.07216 6.26411 8.30596 6.05248 8.49054C5.84086 8.66281 5.56574 8.79817 5.21656 8.89661C4.87796 8.99505 4.54994 9.05657 4.2325 9.08118C3.91507 9.10579 3.54472 9.1304 3.12147 9.1304C2.30671 9.1304 1.31207 9.04427 0.148135 8.85969V7.10006C1.58719 7.35846 2.59241 7.48152 3.15321 7.48152C3.59763 7.48152 3.94681 7.4323 4.19018 7.33386C4.43354 7.23541 4.56052 7.02623 4.56052 6.7309V6.18948C4.56052 5.90646 4.49704 5.70958 4.35948 5.56192C4.22192 5.42656 3.93623 5.35273 3.49182 5.35273H2.50776C1.72475 5.35273 1.11103 5.16815 0.666619 4.799C0.222206 4.42984 1.29166e-06 3.88842 1.29166e-06 3.17472V2.10418C1.29166e-06 1.30434 0.328019 0.762918 0.984057 0.45529C1.64009 0.159967 2.56066 -3.75523e-07 3.74576 -3.75523e-07C4.24308 -3.75523e-07 5.13191 0.0492205 6.42282 0.159967V1.84577C4.80389 1.69811 3.8939 1.62428 3.68228 1.62428C3.0474 1.62428 2.64531 1.6735 2.4866 1.77194C2.3173 1.87038 2.24323 2.06726 2.24323 2.36258V2.83018C2.24323 2.97784 2.30671 3.1132 2.43369 3.22394C2.56066 3.34699 2.76171 3.40852 3.03682 3.40852H4.03146C5.87259 3.42082 6.79317 4.12222 6.79317 5.525Z" transform="translate(68.207 13.9863)" fill="white"/>
<path d="M3.50239 1.39048V3.67923C3.50239 3.94995 3.44949 4.17144 3.34368 4.35601C3.23786 4.54059 3.08973 4.67595 2.89926 4.76208C2.7088 4.84822 2.52892 4.90975 2.33846 4.94666C2.15858 4.98358 1.95753 4.99588 1.74591 4.99588C0.581968 4.99588 -6.45828e-07 4.5652 -6.45828e-07 3.67923V1.39048C-6.45828e-07 0.467596 0.581968 3.75523e-07 1.74591 3.75523e-07C2.92043 0.0123055 3.50239 0.479901 3.50239 1.39048ZM2.89926 3.67923V1.37817C2.89926 0.775223 2.51834 0.4799 1.74591 0.4799C1.58719 0.4799 1.43905 0.492205 1.31207 0.516815C1.1851 0.541426 1.06871 0.578341 0.952312 0.639867C0.835918 0.701392 0.751268 0.787528 0.677199 0.910579C0.613711 1.03363 0.581968 1.18129 0.581968 1.36587V3.66693C0.581968 4.22066 0.962893 4.50368 1.74591 4.50368C2.51834 4.51598 2.89926 4.24527 2.89926 3.67923Z" transform="translate(33.2041 26.4277)" fill="white"/>
<path d="M2.67706 3.6054H2.09509V3.16242C2.0316 3.50696 1.693 3.67923 1.07929 3.67923C0.666619 3.67923 0.391506 3.5931 0.232788 3.42083C0.08465 3.24855 -1.29166e-06 2.99015 -1.29166e-06 2.6456V0H0.581968V2.60869C0.581968 2.69482 0.59255 2.76865 0.603131 2.83018C0.613713 2.8917 0.645458 2.95323 0.677202 3.01476C0.719527 3.07628 0.783013 3.1255 0.878245 3.15011C0.973476 3.18703 1.08987 3.19933 1.23801 3.19933C1.55544 3.19933 1.77765 3.16242 1.90462 3.10089C2.0316 3.02706 2.09509 2.90401 2.09509 2.71943V0H2.67706V3.6054Z" transform="translate(38.3779 27.7441)" fill="white"/>
<path d="M2.38078 4.73747C2.17974 4.77439 1.95753 4.799 1.73532 4.799C1.34382 4.799 1.07929 4.72517 0.92057 4.5652C0.772432 4.40524 0.687781 4.10991 0.687781 3.67923V1.56275H-6.45828e-07V1.11977H0.687781V0H1.26975V1.11977H2.38078V1.56275H1.28033V3.71615C1.28033 3.97456 1.32266 4.14683 1.40731 4.23296C1.49196 4.3191 1.66126 4.36832 1.92579 4.36832C1.98928 4.36832 2.14799 4.34371 2.39136 4.30679V4.73747H2.38078Z" transform="translate(42.3564 26.6367)" fill="white"/>
<path d="M2.49718 2.43642V2.74404C2.49718 3.13781 2.38078 3.39622 2.14799 3.54388C1.91521 3.69154 1.57661 3.76537 1.14277 3.76537C0.814756 3.76537 0.454993 3.74076 0.0740675 3.67923V3.16242C0.592549 3.26086 0.952313 3.29778 1.15336 3.29778C1.40731 3.29778 1.60835 3.27316 1.73533 3.21164C1.8623 3.15011 1.92579 3.03937 1.92579 2.85479V2.48564C1.92579 2.32567 1.88346 2.22723 1.78823 2.1534C1.70358 2.09187 1.55544 2.05496 1.3544 2.05496H0.994638C0.666619 2.05496 0.42325 1.98113 0.25395 1.82116C0.08465 1.66119 6.45828e-07 1.452 6.45828e-07 1.18129V0.849054C6.45828e-07 0.283018 0.465576 3.75523e-07 1.38615 3.75523e-07C1.49196 3.75523e-07 1.79881 0.0246106 2.32788 0.061526V0.541425C1.95753 0.467594 1.64009 0.43068 1.36498 0.43068C1.05813 0.43068 0.846501 0.467594 0.740688 0.541425C0.634876 0.615256 0.571388 0.726003 0.571388 0.885969V1.1936C0.571388 1.4397 0.76185 1.56275 1.14277 1.56275H1.50254C2.16916 1.57506 2.49718 1.85808 2.49718 2.43642Z" transform="translate(45.9229 27.6572)" fill="white"/>
<path d="M2.86752 1.29204V2.54716C2.86752 2.76865 2.84636 2.96554 2.79345 3.1132C2.75113 3.27316 2.68764 3.38391 2.61357 3.47005C2.5395 3.55618 2.43369 3.61771 2.30671 3.66693C2.16916 3.71615 2.04218 3.74076 1.92579 3.75306C1.79881 3.76537 1.64009 3.76537 1.43905 3.76537C1.1851 3.76537 0.984056 3.75306 0.835918 3.74076C0.687781 3.71615 0.550224 3.66693 0.402086 3.5931C0.26453 3.51927 0.158718 3.39622 0.0952306 3.22394C0.0317431 3.05167 0 2.83018 0 2.54716V1.29204C0 1.05824 0.0211638 0.849054 0.0740701 0.689087C0.126976 0.529121 0.179881 0.393763 0.253949 0.307627C0.328018 0.221492 0.433831 0.147661 0.571387 0.0984407C0.708943 0.0492201 0.835919 0.0246103 0.952313 0.0123051C1.06871 0 1.22743 -7.51045e-07 1.43905 -7.51045e-07C1.64009 -7.51045e-07 1.8094 0 1.92579 0.0123051C2.04218 0.0246103 2.16916 0.0492201 2.30671 0.0984407C2.44427 0.147661 2.55008 0.209186 2.61357 0.307627C2.68764 0.393763 2.74054 0.529121 2.79345 0.689087C2.84636 0.849054 2.86752 1.05824 2.86752 1.29204ZM2.27497 2.6456V1.18129C2.27497 0.849054 2.21148 0.639867 2.10567 0.566036C1.98927 0.492205 1.76707 0.442985 1.43905 0.442985C1.11103 0.442985 0.888824 0.4799 0.77243 0.566036C0.656036 0.652172 0.603133 0.849054 0.603133 1.18129V2.6456C0.603133 2.80557 0.624295 2.92862 0.645457 3.02706C0.677201 3.1255 0.730108 3.18703 0.814758 3.23625C0.899408 3.27316 0.984057 3.31008 1.06871 3.31008C1.15336 3.32239 1.28033 3.32238 1.44963 3.32238C1.61893 3.32238 1.74591 3.32239 1.83056 3.31008C1.91521 3.29777 1.99986 3.27316 2.08451 3.23625C2.16916 3.18703 2.22206 3.1255 2.25381 3.02706C2.26439 2.92862 2.27497 2.80557 2.27497 2.6456Z" transform="translate(49.8267 27.6689)" fill="white"/>
<path d="M2.66648 3.6054H2.09509V3.16242C2.0316 3.50696 1.693 3.67923 1.07929 3.67923C0.666622 3.67923 0.391509 3.5931 0.23279 3.42083C0.0740714 3.24855 1.29166e-06 2.99015 1.29166e-06 2.6456V0H0.58197V2.60869C0.58197 2.69482 0.581972 2.76865 0.603134 2.83018C0.613715 2.8917 0.645458 2.95323 0.687783 3.01476C0.730108 3.07628 0.793591 3.1255 0.888823 3.15011C0.984054 3.18703 1.10045 3.19933 1.24859 3.19933C1.56603 3.19933 1.78823 3.16242 1.91521 3.10089C2.04218 3.02706 2.10567 2.90401 2.10567 2.71943V0H2.67706V3.6054H2.66648Z" transform="translate(54.3452 27.7441)" fill="white"/>
<path d="M1.67184 0.566037H1.3544C1.08987 0.566037 0.899408 0.602952 0.772433 0.689088C0.645458 0.762919 0.581971 0.922884 0.581971 1.13207V3.67923H2.58331e-06V0.0738315H0.550223V0.664476C0.550223 0.492204 0.645458 0.332239 0.825339 0.196883C1.0158 0.0615264 1.19568 0 1.39672 0H1.68242V0.566037H1.67184Z" transform="translate(58.7578 27.6816)" fill="white"/>
<path d="M2.35962 3.65462C2.07392 3.72845 1.74591 3.76537 1.36498 3.76537C1.17452 3.76537 1.02638 3.76537 0.92057 3.75306C0.814758 3.74076 0.698361 3.71615 0.560805 3.67923C0.423249 3.64232 0.328021 3.58079 0.253953 3.49466C0.179884 3.42083 0.126976 3.29777 0.0740701 3.15011C0.0211638 3.00245 0 2.80557 0 2.58408V1.25512C0 1.05824 0.0211625 0.885969 0.0529063 0.738307C0.08465 0.590645 0.137559 0.479901 0.201046 0.393765C0.264534 0.307629 0.338603 0.233798 0.412672 0.172272C0.48674 0.123052 0.58197 0.07383 0.708945 0.0615249C0.83592 0.0369146 0.952312 0.0246103 1.03696 0.0123051C1.13219 0 1.25917 -7.51045e-07 1.42847 -7.51045e-07C1.72474 -7.51045e-07 2.02102 0.0369158 2.3173 0.110747V0.602952C1.98928 0.504511 1.66126 0.45529 1.36498 0.45529C1.04755 0.45529 0.835919 0.50451 0.740688 0.590646C0.645456 0.676782 0.592548 0.873665 0.592548 1.15668V2.6333C0.592548 2.89171 0.645458 3.07628 0.761852 3.16242C0.867664 3.24855 1.08987 3.29777 1.42847 3.29777C1.73533 3.29777 2.04218 3.24855 2.3702 3.16242V3.65462H2.35962Z" transform="translate(61.5723 27.6689)" fill="white"/>
<path d="M0.571385 0.701393H1.29166e-06V-7.51045e-07H0.571385V0.701393ZM0.571385 4.90974H1.29166e-06V1.30434H0.571385V4.90974Z" transform="translate(65.4028 26.4395)" fill="white"/>
<path d="M2.6559 3.69154H2.08451V1.08285C2.08451 0.996716 2.07392 0.922885 2.06334 0.861359C2.05276 0.799834 2.02102 0.738308 1.97869 0.676782C1.93637 0.615257 1.87288 0.566037 1.77765 0.529121C1.68242 0.492206 1.56603 0.4799 1.41789 0.4799C1.07929 0.4799 0.85708 0.516815 0.740686 0.602951C0.624293 0.689087 0.571389 0.849054 0.571389 1.07055V3.67923H-1.29166e-06V0.07383H0.571389V0.516815C0.634876 0.172272 0.973474 3.75523e-07 1.58719 3.75523e-07C1.99986 3.75523e-07 2.28555 0.0861352 2.43369 0.258407C2.59241 0.430679 2.66648 0.689087 2.66648 1.03363V3.69154H2.6559Z" transform="translate(67.7412 27.6572)" fill="white"/>
<path d="M2.77229 0.0492205V3.99917C2.77229 4.51598 2.64532 4.86053 2.40195 5.0328C2.15858 5.20507 1.78823 5.30351 1.29092 5.30351C0.846503 5.30351 0.497318 5.2789 0.222205 5.21737V4.73748C0.719524 4.81131 1.08987 4.84822 1.34382 4.84822C1.6401 4.84822 1.85172 4.7867 1.98928 4.68826C2.12683 4.57751 2.19032 4.39293 2.19032 4.14683V3.28547C2.17974 3.45774 2.0845 3.56849 1.89404 3.64232C1.70358 3.71615 1.48138 3.75306 1.23801 3.75306C0.761853 3.75306 0.433833 3.66693 0.264533 3.50696C0.0952326 3.347 1.29166e-06 3.06398 1.29166e-06 2.65791V1.1936C1.29166e-06 0.762918 0.0952313 0.467595 0.296275 0.270713C0.497319 0.0861363 0.814758 7.51045e-07 1.26975 7.51045e-07C1.8094 7.51045e-07 2.12683 0.135357 2.22206 0.43068V0.0861363H2.77229V0.0492205ZM2.19032 2.68252V1.04594C2.19032 0.812139 2.13742 0.652171 2.0316 0.566036C1.92579 0.4799 1.693 0.43068 1.3544 0.43068C1.03696 0.43068 0.825335 0.467596 0.730104 0.553732C0.634873 0.639867 0.58197 0.799833 0.58197 1.03363V2.67021C0.58197 2.91632 0.634876 3.07628 0.740689 3.16242C0.846501 3.23625 1.05813 3.27316 1.37556 3.27316C1.67184 3.27316 1.87288 3.23625 2.01044 3.15011C2.12683 3.08859 2.19032 2.92862 2.19032 2.68252Z" transform="translate(72.0161 27.6973)" fill="white"/>
<path d="M3.22914e-07 2.79326L12.4118 2.34702e-08V31.9318L3.22914e-07 29.1385V2.79326Z" transform="translate(15.1523 0.955078)" fill="white"/>
<path d="M12.4118 29.1385L4.03643e-08 31.9318V2.34702e-08L12.4118 2.79326V29.1385Z" transform="translate(0 0.955078)" fill="white"/>
<path d="M1.8623 1.87761e-07V11.8621H0V1.87761e-07H1.8623Z" transform="translate(5.65039 10.9961)" fill="#292929"/>
<path d="M2.90984 1.80885H0V1.87761e-07H7.70315V1.80885H4.76156V11.8498H2.90984V1.80885Z" transform="translate(17.1309 10.9961)" fill="#292929"/>
</svg>
