<svg width="53" height="36" viewBox="0 0 53 36" fill="none" xmlns="http://www.w3.org/2000/svg">
<path d="M12.5593 27.4979C12.5593 30.422 11.9381 33.2339 10.7896 35.8714C17.4739 31.3055 21.715 24.7876 21.8898 17.535L22.0192 17.3866V-3.47711e-07H-8.59408e-07V22.5034H11.9413C12.3457 24.122 12.5593 25.7902 12.5593 27.4979Z" transform="translate(30.981)" fill="white"/>
<path d="M12.032 22.5035C12.4591 24.1616 12.6823 25.8729 12.6823 27.623C12.6823 30.5473 12.0579 33.3625 10.9094 36C17.6807 31.3747 21.9448 24.7517 22.016 17.3867H22.0192V17.2977C22.0192 17.2614 22.0192 17.2285 22.0192 17.1922C22.0192 17.1559 22.0192 17.1196 22.0192 17.0834V-3.47711e-07H0V22.5034H12.032V22.5035Z" fill="white"/>
</svg>
