<svg xmlns="http://www.w3.org/2000/svg" width="2500" height="740.74" viewBox="0 0 2500 740.74"><title>available-on-the-app-store</title><path d="M2410.49,740.66H95.67c-51.85,0-92.59-40.74-92.59-92.59V92.51C3.08,40.66,43.82-.08,95.67-.08H2410.49c51.85,0,92.59,40.74,92.59,92.59V648.06C2503.08,699.92,2462.34,740.66,2410.49,740.66Z" transform="translate(-3.08 0.08)" style="fill:#fff"/><path d="M551.76,353.17c-.51-60.57,49.58-90,51.78-91.37-28.43-41.28-72.42-47-87.81-47.55-36.89-3.89-72.76,22.17-91.54,22.17-19.12,0-48.22-21.66-79.35-21.15-40.1.68-77.83,23.86-98.31,60.07-42.47,73.6-10.83,181.89,29.95,241.45,20.47,29.1,44.16,61.76,75.46,60.57,30.46-1.18,42-19.46,78.68-19.46,36.55,0,47.21,19.46,79,18.78,32.82-.51,53.3-29.27,73.09-58.71,23.52-33.33,33-66.33,33.33-68-.85-.34-63.62-24.36-64.3-96.78" transform="translate(-3.08 0.08)" style="fill:#292929"/><path d="M491.7,175.17c16.41-20.47,27.58-48.39,24.53-76.82-23.69,1-53.47,16.41-70.56,36.55-15.06,17.77-28.59,46.7-25.21,73.94,26.73,2,54.14-13.54,71.23-33.67" transform="translate(-3.08 0.08)"/><path d="M993.71,573.13H951.08l-23.35-73.43H846.51l-22.17,73.43H782.89l80.37-249.91H913l80.71,249.91ZM920.79,468.9l-21.15-65.14c-2.2-6.77-6.43-22.33-12.52-47h-.85c-2.54,10.66-6.43,26.4-11.84,47L853.62,468.9Z" transform="translate(-3.08 0.08)" style="fill:#292929"/><path d="M1200.31,480.91c0,30.63-8.29,54.82-25,72.59-14.89,15.9-33.5,23.69-55.5,23.69-23.86,0-40.95-8.46-51.44-25.55v94.58h-40.1V452.15c0-19.29-.51-38.92-1.52-59.22h35.19l2.2,28.59h.68c13.37-21.49,33.67-32.32,60.74-32.32,21.32,0,38.92,8.46,53.13,25.21,14.55,16.92,21.66,38.92,21.66,66.5Zm-40.78,1.35c0-17.6-3.89-32-11.84-43.32-8.63-11.84-20.3-17.77-34.86-17.77-9.81,0-18.78,3.38-26.9,9.81a45.31,45.31,0,0,0-15.74,25.72,54.79,54.79,0,0,0-1.86,12.18V499c0,13,4.06,24.2,12,33.16s18.44,13.54,31.3,13.54c15.06,0,26.73-5.92,35.19-17.43,8.46-11.67,12.69-26.9,12.69-46Z" transform="translate(-3.08 0.08)" style="fill:#292929"/><path d="M1407.41,480.91c0,30.63-8.29,54.82-25,72.59-14.89,15.9-33.5,23.69-55.5,23.69-23.86,0-40.95-8.46-51.44-25.55v94.58h-40.1V452.15c0-19.29-.51-38.92-1.52-59.22H1269l2.2,28.59h.68c13.37-21.49,33.67-32.32,60.74-32.32,21.32,0,38.92,8.46,53.13,25.21,14.55,16.92,21.66,38.92,21.66,66.5Zm-40.78,1.35c0-17.6-3.89-32-11.84-43.32-8.63-11.84-20.3-17.77-34.86-17.77-9.81,0-18.78,3.38-26.9,9.81a46.22,46.22,0,0,0-15.74,25.72,54.78,54.78,0,0,0-1.86,12.18V499c0,13,4.06,24.2,12,33.16s18.44,13.54,31.3,13.54c15.06,0,26.9-5.92,35.19-17.43,8.63-11.67,12.69-26.9,12.69-46Z" transform="translate(-3.08 0.08)" style="fill:#292929"/><path d="M1639.21,503.08c0,21.32-7.44,38.58-22.17,51.94q-24.36,21.83-68,21.83c-26.9,0-48.39-5.25-64.63-15.57l9.31-33.33a112.39,112.39,0,0,0,57.87,15.57c15.06,0,26.9-3.38,35.19-10.15,8.46-6.77,12.69-15.9,12.69-27.24a35.24,35.24,0,0,0-10.32-25.55q-10.41-10.41-34.52-19.29c-44.16-16.41-66-40.27-66-71.57,0-20.47,7.78-37.22,23.18-50.42,15.4-13,35.87-19.63,61.42-19.63,22.67,0,41.62,3.89,56.68,11.84L1619.75,364c-14.21-7.61-30.12-11.51-48.05-11.51-14,0-25.21,3.55-33.16,10.32-6.6,6.26-10,13.71-10,22.67a30.38,30.38,0,0,0,11.51,24.36c6.6,5.92,18.78,12.35,36.38,19.29,21.49,8.63,37.22,18.78,47.38,30.46,10.32,11.67,15.4,26.23,15.4,43.48" transform="translate(-3.08 0.08)" style="fill:#292929"/><path d="M1771.86,423H1727.7v87.48c0,22.17,7.78,33.33,23.35,33.33a74.27,74.27,0,0,0,17.77-1.86l1.18,30.46c-8,2.88-18.27,4.4-31.13,4.4-15.9,0-28.09-4.91-37.05-14.55s-13.37-25.89-13.37-48.56V422.88h-26.23V392.93h26.23v-33l39.25-11.84v44.84h44.16V423" transform="translate(-3.08 0.08)" style="fill:#292929"/><path d="M1970.51,481.59c0,27.75-8,50.42-23.69,68.19q-24.87,27.41-66,27.41c-26.4,0-47.55-8.8-63.28-26.23S1794,511.37,1794,484.63c0-27.92,8.12-50.76,24.2-68.53,16.24-17.77,38.07-26.73,65.48-26.73,26.4,0,47.71,8.8,63.79,26.4,15.4,16.92,23,38.92,23,65.82Zm-41.45.85c0-16.58-3.55-30.63-10.66-42.47-8.46-14.38-20.47-21.49-36-21.49-16.07,0-28.43,7.11-36.72,21.49-7.28,11.84-10.66,26.23-10.66,43.32,0,16.58,3.55,30.79,10.66,42.47,8.63,14.38,20.81,21.49,36.38,21.49q22.84,0,36-21.83C1925.33,513.23,1929.05,499,1929.05,482.43Z" transform="translate(-3.08 0.08)" style="fill:#292929"/><path d="M2100.79,428.12a74.18,74.18,0,0,0-12.69-1c-14,0-25,5.25-32.66,15.9-6.6,9.31-10,21.32-10,35.53v94.58h-40.1V449.61c0-20.81-.34-39.76-1.18-56.68H2039l1.52,34.52h1.18c4.23-11.84,10.83-21.49,20-28.59a48.71,48.71,0,0,1,28.93-9.64,84.27,84.27,0,0,1,10,.68l.17,38.24" transform="translate(-3.08 0.08)" style="fill:#292929"/><path d="M2279.8,474.48a91.53,91.53,0,0,1-1.52,18.1H2158.15c.51,17.77,6.26,31.47,17.43,40.78,10.15,8.29,23.18,12.52,39.25,12.52,17.77,0,34-2.88,48.56-8.46l6.26,27.75q-25.63,11.17-60.4,11.17c-27.92,0-49.91-8.29-65.82-24.7s-23.86-38.58-23.86-66.16c0-27.07,7.44-49.74,22.33-67.85q23.35-28.93,62.94-28.93c25.89,0,45.68,9.64,58.88,28.93,10.66,15.57,16.07,34.35,16.07,56.85Zm-38.24-10.32c.34-11.84-2.37-22.17-7.78-30.79-6.94-11.17-17.6-16.75-31.81-16.75-13,0-23.69,5.41-31.81,16.24A60.17,60.17,0,0,0,2158.32,464l83.25.17Z" transform="translate(-3.08 0.08)" style="fill:#292929"/><path d="M901.5,233.88h-21l-11.51-36H829.08l-11,36h-20.3L837.2,111h24.36Zm-36-51.27-10.32-32.15c-1-3.21-3-11-6.26-23.18h-.34c-1.35,5.25-3,12.86-5.92,23.18l-10.15,32.15Z" transform="translate(-3.08 0.08)" style="fill:#292929"/><path d="M1000.31,145.22l-33.5,88.66H947.69l-32.49-88.66h21.15l15.06,46.87c2.54,7.78,4.74,15.23,6.43,22.33h.51c1.52-6.43,3.72-13.87,6.43-22.33l14.89-46.87h20.64" transform="translate(-3.08 0.08)" style="fill:#292929"/><path d="M1071.72,233.88l-1.52-10.15h-.51q-9.14,12.18-25.89,12.18c-15.9,0-27.07-11.17-27.07-26.06,0-21.83,19-33.16,51.78-33.16V175c0-11.67-6.26-17.43-18.44-17.43a41.32,41.32,0,0,0-23.18,6.6l-4.06-12.86c8.12-5.08,18.44-7.61,30.46-7.61,23.18,0,34.86,12.18,34.86,36.72v32.66c0,9,.34,15.9,1.35,21.15l-17.77-.34ZM1069,189.72c-21.83,0-32.82,5.25-32.82,17.94,0,9.31,5.58,13.87,13.54,13.87,10,0,19.29-7.61,19.29-18.1Z" transform="translate(-3.08 0.08)" style="fill:#292929"/><path d="M1132,130.67a11.53,11.53,0,0,1-11.67-11.84c0-6.77,5.25-11.67,12-11.67s12.18,4.91,12,11.67c0,7.11-5.08,11.84-12.35,11.84Zm-9.48,14.55h19.63v88.49h-19.63Z" transform="translate(-3.08 0.08)" style="fill:#292929"/><path d="M1177.13,104.61h19.63v129.1h-19.63Z" transform="translate(-3.08 0.08)" style="fill:#292929"/><path d="M1280.34,233.88l-1.52-10.15h-.51q-9.14,12.18-25.89,12.18c-15.9,0-27.07-11.17-27.07-26.06,0-21.83,19-33.16,51.78-33.16V175c0-11.67-6.26-17.43-18.44-17.43a41.32,41.32,0,0,0-23.18,6.6l-4.06-13c8.12-5.08,18.44-7.61,30.46-7.61,23.18,0,34.86,12.18,34.86,36.72V212.9a139.88,139.88,0,0,0,1.18,21.15h-17.6v-.17Zm-2.71-44.16c-21.83,0-32.82,5.25-32.82,17.94,0,9.31,5.58,13.87,13.54,13.87,10,0,19.29-7.61,19.29-18.1Z" transform="translate(-3.08 0.08)" style="fill:#292929"/><path d="M1376.61,235.91q-18.78,0-27.92-15.74h-.34l-1.18,13.71h-16.75c.51-7.11.68-15.06.68-23.86V104.61h19.8v53.64h.34c5.92-9.81,15.23-14.72,28.26-14.72,21.32,0,36.21,18.27,36.21,44.84C1415.7,215.78,1399.12,235.91,1376.61,235.91Zm-4.06-77c-11.34,0-21.66,9.81-21.66,23.52V198c0,12.18,9.31,22.17,21.32,22.17,14.72,0,23.52-12,23.52-31.13C1395.73,171.11,1386.6,158.92,1372.55,158.92Z" transform="translate(-3.08 0.08)" style="fill:#292929"/><path d="M1444.8,104.61h19.63v129.1H1444.8Z" transform="translate(-3.08 0.08)" style="fill:#292929"/><path d="M1571.53,194.29h-59.05c.34,16.75,11.51,26.23,27.92,26.23a66.55,66.55,0,0,0,23.86-4.23l3,13.71c-8.29,3.72-18.1,5.41-29.61,5.41-27.75,0-44.16-17.43-44.16-44.67,0-27.07,16.75-47.55,42-47.55,22.5,0,36.89,16.75,36.89,42.13a34.3,34.3,0,0,1-.85,9Zm-17.94-14c0-13.71-6.94-23.35-19.46-23.35-11.34,0-20.13,9.81-21.49,23.35Z" transform="translate(-3.08 0.08)" style="fill:#292929"/><path d="M1690.82,235.91c-25.89,0-42.64-19.29-42.64-45.51,0-27.41,17.09-46.87,44.16-46.87,25.55,0,42.64,18.44,42.64,45.35C1735,216.45,1717.38,235.91,1690.82,235.91Zm.85-78c-14.21,0-23.35,13.37-23.35,31.81,0,18.27,9.31,31.47,23.18,31.47s23.18-14.21,23.18-32c-.17-17.94-9.14-31.3-23-31.3Z" transform="translate(-3.08 0.08)" style="fill:#292929"/><path d="M1840.73,233.88H1821.1V183c0-15.74-6.09-23.52-17.94-23.52-11.67,0-19.63,10-19.63,21.66v52.62h-19.63V170.6c0-7.78-.17-16.24-.68-25.38h17.26l.85,13.71h.51c5.25-9.48,16.07-15.57,28.09-15.57,18.61,0,30.79,14.21,30.79,37.39v53.13" transform="translate(-3.08 0.08)" style="fill:#292929"/><path d="M1969.49,160.11h-21.66v43c0,11,3.89,16.41,11.51,16.41a43.06,43.06,0,0,0,8.8-.85l.51,14.89c-3.89,1.52-9,2.2-15.23,2.2-15.57,0-24.7-8.63-24.7-31V160.11h-12.86V145.39h12.86V129.15l19.29-5.92v22h21.66v14.89" transform="translate(-3.08 0.08)" style="fill:#292929"/><path d="M2073.72,233.88h-19.63V183.29c0-15.9-6.09-23.86-17.94-23.86-10.15,0-19.63,6.94-19.63,21v53.3H1996.9V104.61h19.63v53.13h.34c6.26-9.64,15.06-14.38,26.56-14.38,18.78,0,30.29,14.55,30.29,37.73v52.79" transform="translate(-3.08 0.08)" style="fill:#292929"/><path d="M2174.22,194.29h-59.05c.34,16.75,11.51,26.23,27.92,26.23a66.55,66.55,0,0,0,23.86-4.23l3,13.71c-8.29,3.72-18.1,5.41-29.61,5.41-27.75,0-44.16-17.43-44.16-44.67,0-27.07,16.75-47.55,42-47.55,22.5,0,36.89,16.75,36.89,42.13A34.3,34.3,0,0,1,2174.22,194.29Zm-17.94-14c0-13.71-6.94-23.35-19.46-23.35-11.34,0-20.3,9.81-21.49,23.35Z" transform="translate(-3.08 0.08)" style="fill:#292929"/></svg>