<svg xmlns="http://www.w3.org/2000/svg" width="55" height="57" viewBox="0 0 55 57"><defs><style>.a{fill:#fff;}</style></defs><title>music-icon</title><path class="a" d="M54.61,4l-.18-.21a14.19,14.19,0,0,0-19.8.3,11.84,11.84,0,0,1-4,2.64A11.76,11.76,0,0,1,26,7.6a12.56,12.56,0,0,1-6.33-1.66,1.58,1.58,0,0,0-.82-.22,1.54,1.54,0,0,0-.81.22,1.81,1.81,0,0,0-.69.71,1.87,1.87,0,0,0-.24.95V41.8A9.53,9.53,0,1,0,19,47.5V16.29a14.41,14.41,0,0,0,7,1.76,13.61,13.61,0,0,0,5.46-1A13.67,13.67,0,0,0,36,14a11.9,11.9,0,0,1,8.66-3.51A12.22,12.22,0,0,1,52.27,13a1.7,1.7,0,0,0,.83.35V35.15a9.51,9.51,0,1,0,1.9,5.7V4.75a1.19,1.19,0,0,0-.11-.41A1.12,1.12,0,0,0,54.61,4ZM9.48,55.1a7.6,7.6,0,0,1-5.36-13,7.58,7.58,0,0,1,11.67,1.15A7.6,7.6,0,0,1,9.48,55.1Zm36-6.65a7.6,7.6,0,0,1-5.36-13,7.57,7.57,0,0,1,11.67,1.15,7.6,7.6,0,0,1-6.31,11.82ZM53.1,11.19a14.23,14.23,0,0,0-8.41-2.64,13.71,13.71,0,0,0-10.06,4.1,11.84,11.84,0,0,1-4,2.64,11.76,11.76,0,0,1-4.69.86A12.07,12.07,0,0,1,19,14V7.75A14.4,14.4,0,0,0,26,9.5a13.61,13.61,0,0,0,5.46-1A13.67,13.67,0,0,0,36,5.41,11.9,11.9,0,0,1,44.69,1.9,11.78,11.78,0,0,1,53.1,5.2Z" transform="translate(0 0)"/></svg>