<svg width="36" height="36" viewBox="0 0 36 36" fill="none" xmlns="http://www.w3.org/2000/svg">
<path d="M18 0C8.07464 0 0 8.07464 0 18C0 27.9254 8.07464 36 18 36C27.9254 36 36 27.9254 36 18C36 8.07464 27.9254 0 18 0ZM18 34.3636C8.97709 34.3636 1.63636 27.0229 1.63636 18C1.63636 8.97709 8.97709 1.63636 18 1.63636C27.0229 1.63636 34.3636 8.97709 34.3636 18C34.3636 27.0229 27.0229 34.3636 18 34.3636ZM18 4.43209C17.5484 4.43209 17.1818 4.79864 17.1818 5.25027V16.0503L11.1408 10.1205C10.818 9.80427 10.2997 9.80877 9.98345 10.1311C9.66723 10.4539 9.67173 10.9718 9.99409 11.2885L17.4265 18.5838C17.5827 18.7372 17.7897 18.8182 18 18.8182C18.1068 18.8182 18.2144 18.7973 18.3166 18.7544C18.6206 18.6267 18.8182 18.3297 18.8182 18V5.25027C18.8182 4.79823 18.4516 4.43209 18 4.43209Z" fill="#AAAC23"/>
</svg>
