<svg xmlns="http://www.w3.org/2000/svg" width="55" height="55" viewBox="0 0 55 55"><defs><style>.a{fill:#fff;}</style></defs><title>other-icon</title><path class="a" d="M27.5,0A27.5,27.5,0,1,0,55,27.5,27.5,27.5,0,0,0,27.5,0Zm0,52.86A25.36,25.36,0,1,1,52.86,27.5,25.35,25.35,0,0,1,27.5,52.86Z"/><path class="a" d="M27.5,29.64a2.14,2.14,0,1,0-2.14-2.14A2.14,2.14,0,0,0,27.5,29.64Z"/><path class="a" d="M18.33,29.64a2.14,2.14,0,1,0-2.14-2.14A2.14,2.14,0,0,0,18.33,29.64Z"/><path class="a" d="M36.67,29.64a2.14,2.14,0,1,0-2.14-2.14A2.14,2.14,0,0,0,36.67,29.64Z"/></svg>