<svg width="29" height="36" viewBox="0 0 29 36" fill="none" xmlns="http://www.w3.org/2000/svg">
<path d="M14.5 36C13.7973 36 13.119 35.7029 12.6357 35.1859C8.8381 31.095 0 20.9023 0 14.5319C0 6.51696 6.50266 1.24224e-07 14.5 1.24224e-07C22.4973 1.24224e-07 29 6.51696 29 14.5319C29 20.9023 20.1619 31.095 16.3643 35.1818C15.881 35.7028 15.2027 36 14.5 36ZM14.5 1.70963C7.44496 1.70963 1.70588 7.46133 1.70588 14.5319C1.70588 20.4545 11.0273 30.9444 13.8867 34.0176C14.2116 34.3636 14.7924 34.3677 15.1174 34.0176C17.9727 30.9444 27.2941 20.4586 27.2941 14.5319C27.2941 7.46133 21.555 1.70963 14.5 1.70963ZM14.4878 21.2687C10.2556 21.2687 6.81135 17.8168 6.81135 13.5753C6.81135 9.33379 10.2556 5.88195 14.4878 5.88195C18.72 5.88195 22.1643 9.33379 22.1643 13.5753C22.1643 17.8168 18.72 21.2687 14.4878 21.2687ZM14.4878 7.59159C11.1979 7.59159 8.51723 10.2741 8.51723 13.5753C8.51723 16.8765 11.1979 19.559 14.4878 19.559C17.7777 19.559 20.4584 16.8765 20.4584 13.5753C20.4584 10.2741 17.7818 7.59159 14.4878 7.59159Z" fill="#AAAC23"/>
</svg>
