<?xml version="1.0" standalone="no"?>
<!DOCTYPE svg PUBLIC "-//W3C//DTD SVG 20010904//EN"
 "http://www.w3.org/TR/2001/REC-SVG-20010904/DTD/svg10.dtd">
<svg version="1.0" xmlns="http://www.w3.org/2000/svg"
 width="251.000000pt" height="251.000000pt" viewBox="0 0 251.000000 251.000000"
 preserveAspectRatio="xMidYMid meet">
<metadata>
Created by potrace 1.11, written by Peter Selinger 2001-2013
</metadata>
<g transform="translate(0.000000,251.000000) scale(0.100000,-0.100000)"
fill="#000000" stroke="none">
<path d="M1040 2028 c-102 -176 -196 -338 -208 -361 -23 -40 -103 -178 -129
-222 -7 -11 -15 -27 -19 -35 -4 -8 -26 -46 -49 -85 -23 -38 -86 -146 -140
-240 -54 -93 -106 -183 -115 -200 -10 -16 -56 -96 -103 -177 -47 -82 -83 -148
-80 -148 5 0 230 185 243 200 3 3 56 47 119 99 62 51 123 101 135 111 58 50
177 149 220 185 27 22 54 45 60 50 6 6 119 100 251 210 132 110 253 212 270
226 16 15 43 38 59 51 l30 25 -69 124 c-37 68 -77 140 -88 159 -11 19 -30 53
-42 75 -13 22 -48 84 -79 139 -31 54 -56 102 -56 106 0 4 -6 12 -12 18 -10 7
-58 -67 -198 -310z"/>
<path d="M1574 1165 c-126 -80 -234 -151 -241 -158 -9 -9 34 -104 195 -430
l206 -417 383 0 384 0 -12 22 c-7 12 -99 168 -205 346 -107 178 -194 326 -194
328 0 3 -9 17 -19 32 -11 15 -72 116 -136 225 -64 108 -120 197 -124 197 -4 0
-111 -65 -237 -145z"/>
<path d="M920 759 c-69 -45 -178 -116 -243 -158 -64 -42 -159 -103 -210 -136
-50 -33 -168 -109 -262 -169 -94 -60 -177 -115 -185 -123 -12 -11 102 -13 687
-13 l701 0 -88 173 c-216 421 -259 502 -267 504 -4 2 -64 -33 -133 -78z"/>
</g>
</svg>
