<svg xmlns="http://www.w3.org/2000/svg" width="55" height="51" viewBox="0 0 55 51"><defs><style>.a{fill:#fff;}</style></defs><title>shedule-icon</title><path class="a" d="M10.31,0A1.14,1.14,0,0,0,9.17,1.13V2.27H4.58A4.58,4.58,0,0,0,0,6.8v34a4.58,4.58,0,0,0,4.58,4.53H30.47a9.19,9.19,0,0,0,17,0h3A4.67,4.67,0,0,0,55,40.8V6.8a4.58,4.58,0,0,0-4.58-4.53H45.83V1.13a1.15,1.15,0,0,0-2.29,0V2.27H34.38V1.13a1.15,1.15,0,0,0-2.3,0V2.27H22.92V1.13a1.15,1.15,0,0,0-2.29,0V2.27H11.46V1.13A1.14,1.14,0,0,0,10.31,0ZM4.58,4.53H9.17V5.67a1.15,1.15,0,0,0,2.29,0V4.53h9.17V5.67a1.15,1.15,0,0,0,2.29,0V4.53h9.16V5.67a1.15,1.15,0,0,0,2.3,0V4.53h9.16V5.67a1.15,1.15,0,0,0,2.29,0V4.53h4.59A2.26,2.26,0,0,1,52.71,6.8v34a2.26,2.26,0,0,1-2.29,2.27H48.05a10.73,10.73,0,0,0,.08-1.14,9.17,9.17,0,0,0-18.34,0,8.62,8.62,0,0,0,.08,1.14H4.58A2.26,2.26,0,0,1,2.29,40.8V6.8A2.26,2.26,0,0,1,4.58,4.53Zm3.48,6.8a1.14,1.14,0,1,0,0,2.27h4.5a1.14,1.14,0,1,0,0-2.27Zm11.46,0a1.14,1.14,0,1,0,0,2.27H24a1.14,1.14,0,1,0,0-2.27Zm11.46,0a1.14,1.14,0,1,0,0,2.27h4.5a1.14,1.14,0,1,0,0-2.27Zm11.46,0a1.14,1.14,0,1,0,0,2.27h4.5a1.14,1.14,0,1,0,0-2.27ZM8.06,19.27a1.13,1.13,0,1,0,0,2.26h4.5a1.13,1.13,0,1,0,0-2.26Zm11.46,0a1.13,1.13,0,1,0,0,2.26H24a1.13,1.13,0,1,0,0-2.26Zm11.46,0a1.13,1.13,0,1,0,0,2.26h4.5a1.16,1.16,0,0,0,1.19-1.13,1.12,1.12,0,0,0-.73-1,1.14,1.14,0,0,0-.46-.09Zm11.46,0a1.13,1.13,0,1,0,0,2.26h4.5a1.13,1.13,0,1,0,0-2.26ZM8.06,27.2a1.14,1.14,0,1,0,0,2.27h4.5a1.14,1.14,0,1,0,0-2.27Zm11.46,0a1.14,1.14,0,1,0,0,2.27H24a1.14,1.14,0,1,0,0-2.27ZM31,27.2a1.14,1.14,0,1,0,0,2.27h4.5a1.14,1.14,0,1,0,0-2.27Zm11.46,0a1.14,1.14,0,1,0,0,2.27h4.5a1.14,1.14,0,1,0,0-2.27ZM8.06,35.13a1.14,1.14,0,1,0,0,2.27h4.5a1.14,1.14,0,1,0,0-2.27Zm30.9,0a6.8,6.8,0,1,1-6.88,6.8A6.82,6.82,0,0,1,39,35.13Zm-19.44,0a1.14,1.14,0,1,0,0,2.27H24a1.14,1.14,0,1,0,0-2.27ZM39,37.4a1.14,1.14,0,0,0-1.15,1.13v3.4A1.14,1.14,0,0,0,39,43.07H42.4a1.14,1.14,0,1,0,0-2.27H40.1V38.53A1.14,1.14,0,0,0,39,37.4Z"/></svg>