<svg xmlns="http://www.w3.org/2000/svg" width="55" height="58" viewBox="0 0 55 58"><defs><style>.a{fill:#fff;}</style></defs><title>support-icon</title><path class="a" d="M27.5,0A18.61,18.61,0,0,0,9,18.69v5.8H7.67A7.71,7.71,0,0,0,0,32.22v5.16a7.71,7.71,0,0,0,7.67,7.73h6.4a1.33,1.33,0,0,0,1.28-1.29v-18a1.33,1.33,0,0,0-1.28-1.29H11.51v-5.8a16,16,0,1,1,32,0v5.8H40.93a1.38,1.38,0,0,0-1.28,1.29v18a1.33,1.33,0,0,0,1.28,1.29h2.44a7.12,7.12,0,0,1-2.82,4.39C38.68,51,35.78,52,31.78,52.18a4.5,4.5,0,1,0,0,2.58c4.44-.17,7.88-1.37,10.29-3.22A9.84,9.84,0,0,0,46,45.11h1.38A7.71,7.71,0,0,0,55,37.38V32.22a7.71,7.71,0,0,0-7.67-7.73H46.05v-5.8A18.61,18.61,0,0,0,27.5,0ZM7.67,27.07h5.12V42.53H7.67a5.09,5.09,0,0,1-5.11-5.15V32.22A5.09,5.09,0,0,1,7.67,27.07Zm34.54,0h5.12a5.09,5.09,0,0,1,5.11,5.15v5.16a5.09,5.09,0,0,1-5.11,5.15H42.21ZM27.5,51.56a1.93,1.93,0,1,1-1.92,1.93A1.91,1.91,0,0,1,27.5,51.56Z" transform="translate(0 0)"/></svg>