<svg xmlns="http://www.w3.org/2000/svg" width="148.49" height="55" viewBox="0 0 148.49 55"><title>ul-lab-logo</title><path d="M27.49,0A27.5,27.5,0,1,0,55,27.5h0A27.55,27.55,0,0,0,27.49,0m0,50.05A22.55,22.55,0,1,1,50,27.5,22.55,22.55,0,0,1,27.49,50.05M40.7,42.28h-11V20.7H35V37.88H40.7ZM27.59,28.43c0,3.93-2.61,6.08-6.37,6.08h-.77c-3.71,0-6.43-1.92-6.43-5.94v-16H19.3V28.89q0,1.7,1.38,1.7H21c1.17,0,1.4-1.12,1.4-2.06v-16h5.24ZM17.73,38.91a3.06,3.06,0,1,0,3.05-3.08,3.06,3.06,0,0,0-3.05,3.08s0,0,0,0m.58,0a2.49,2.49,0,1,1,2.49,2.49,2.49,2.49,0,0,1-2.49-2.49m1.37,1.48h.57V39.13h.47c.65,0,.66.29.67.58,0,.49,0,.57.11.7h.59c-.12-.19-.1-.27-.12-.74,0-.3,0-.66-.44-.74h0a.73.73,0,0,0,.52-.7.89.89,0,0,0-.86-.91H19.67Zm.57-2.65h.59c.37,0,.62.09.62.47,0,.21-.08.49-.55.49h-.64Z" transform="translate(0.01)" style="fill:#fff"/><path d="M63.3,12.57v8.78c0,1.26.3,2.19,1.48,2.19s1.48-.94,1.48-2.19V12.57h2.53v8.78c0,3.21-2,4.06-4,4.06s-4-.69-4-4.06V12.57Zm6.58,3.1h2.34v1.11h0a2.61,2.61,0,0,1,2.43-1.35c1.48,0,2.4.83,2.4,2.69v7H74.63V18.61c0-1-.32-1.32-1-1.32s-1.28.49-1.28,1.56v6.3H69.87Zm13.3,8.48h0A2.29,2.29,0,0,1,81,25.4c-2,0-2.91-1.46-2.91-5s.91-5,2.91-5a2.26,2.26,0,0,1,2,1.13h0v-4h2.44V25.15H83.19Zm-1.39-.62c1.07,0,1.28-1.06,1.28-3.11s-.21-3.13-1.28-3.13-1.27,1.06-1.27,3.13.21,3.11,1.27,3.11m7.13-2.75v.76c0,1.11.3,2.2,1.2,2.2s1.14-.62,1.3-1.79h2.17c-.07,2.2-1.13,3.46-3.43,3.46-3.52,0-3.66-2.72-3.66-5.07,0-2.54.49-4.9,3.77-4.9,2.85,0,3.46,1.9,3.46,4.81v.53Zm2.5-1.45c-.06-1.45-.24-2.25-1.24-2.25s-1.26,1-1.26,1.88v.37Zm3.34-3.67h2.33v1.27h0a2.44,2.44,0,0,1,2.18-1.51,2,2,0,0,1,.45,0v2.32c-.26,0-.49,0-.76,0a1.64,1.64,0,0,0-1.8,1.72v5.69H94.75Zm5.48,0h2.44l1.11,6.73h0L105,15.67h2.63l1.25,6.76h0l1.15-6.73h2.32l-2,9.48h-2.78l-1.25-6.74h0l-1.18,6.74h-2.82Zm12.94,0h2.32v1.27h0a2.46,2.46,0,0,1,2.19-1.51,2.63,2.63,0,0,1,.43,0v2.36c-.24,0-.49,0-.76,0a1.64,1.64,0,0,0-1.8,1.71v5.69h-2.43ZM119,12.41h2.42v2.07H119Zm0,3.23h2.42v9.53H119ZM123.6,13H126v2.72h1.4v1.66H126v5.17c0,.75.15,1,.87,1a3.6,3.6,0,0,0,.53,0V25.2a13.7,13.7,0,0,1-1.57.1c-1.9,0-2.26-.57-2.26-2.47V17.39h-1.23V15.73h1.23Zm6.78,7.87v.76c0,1.11.31,2.21,1.2,2.21s1.14-.62,1.28-1.79h2.2c-.09,2.21-1.16,3.46-3.43,3.46-3.54,0-3.68-2.72-3.68-5.07,0-2.54.49-4.9,3.77-4.9,2.84,0,3.46,1.9,3.46,4.81v.52Zm2.47-1.45c0-1.45-.22-2.25-1.22-2.25s-1.26,1-1.26,1.89v.36ZM136,15.71h2.32V17h0a2.44,2.44,0,0,1,2.19-1.51,2.69,2.69,0,0,1,.44,0v2.31c-.25,0-.49,0-.76,0a1.65,1.65,0,0,0-1.8,1.71v5.69H136Zm7.68,6.37v.32a1.22,1.22,0,0,0,1.27,1.39,1.07,1.07,0,0,0,1.22-1.13,1.14,1.14,0,0,0-.87-1.08L143.56,21a2.63,2.63,0,0,1-2-2.65c0-1.56,1-2.86,3.46-2.86,2.19,0,3.24,1,3.24,2.69v.4h-2.19c0-1-.28-1.44-1.07-1.44a1,1,0,0,0-1.14.93s0,.07,0,.1c0,.46.25.84,1.06,1.11l1.48.49a2.53,2.53,0,0,1,2.09,2.71c0,2-1.48,3-3.51,3-2.74,0-3.49-1.19-3.49-3v-.34ZM60.74,42.24V29.66h2.54V40.17h4.49v2.07Zm8.39-6.54v-.23c0-2.18,1.48-2.92,3.32-2.92,2.9,0,3.43,1.19,3.43,2.91v5a3.81,3.81,0,0,0,.31,1.83H73.87a4,4,0,0,1-.29-1h0a2.37,2.37,0,0,1-2.43,1.24c-1.69,0-2.29-1.45-2.29-2.72,0-1.79.72-2.51,2.41-3l1.37-.36c.73-.2,1-.49,1-1.12a1,1,0,0,0-1.13-1.15,1.08,1.08,0,0,0-1.13,1.22v.27Zm4.45,1.83a2.89,2.89,0,0,1-1.05.49c-1,.21-1.38.69-1.38,1.53s.27,1.33.93,1.33a1.45,1.45,0,0,0,1.48-1.4s0-.05,0-.08Zm4-7.84H80v4h0a2.29,2.29,0,0,1,2-1.12c2,0,2.91,1.46,2.91,5s-.92,5-2.91,5A2.33,2.33,0,0,1,80,41.26h0v1H77.63Zm3.72,11c1.06,0,1.26-1.06,1.26-3.11s-.2-3.13-1.26-3.13-1.3,1-1.3,3.13.22,3.11,1.3,3.11m8.58-8.11c2.93-.06,3.74,1.69,3.74,5s-1,5-3.74,5-3.74-1.69-3.74-5,1-5,3.74-5m0,8.32c1,0,1.31-1,1.31-3.33s-.32-3.34-1.31-3.34c-1.19,0-1.31,1.39-1.31,3.34s.11,3.33,1.31,3.33m4.95-8.07h2.32v1.27h0a2.44,2.44,0,0,1,2.18-1.51,2.75,2.75,0,0,1,.44,0v2.32c-.24,0-.49,0-.76,0a1.64,1.64,0,0,0-1.8,1.71v5.69H94.86Zm5.83,2.91v-.23c0-2.18,1.48-2.92,3.34-2.92,2.88,0,3.43,1.19,3.43,2.91v5a3.81,3.81,0,0,0,.31,1.83h-2.34a3.65,3.65,0,0,1-.3-1h0a2.34,2.34,0,0,1-2.42,1.24c-1.69,0-2.29-1.45-2.29-2.72,0-1.79.71-2.51,2.39-3l1.38-.36c.72-.2,1-.49,1-1.12s-.31-1.15-1.13-1.15a1.09,1.09,0,0,0-1.13,1.22v.27Zm4.45,1.83a2.87,2.87,0,0,1-1,.49c-1,.21-1.37.69-1.37,1.53s.26,1.33.92,1.33a1.45,1.45,0,0,0,1.48-1.4s0-.05,0-.08Zm4.55-7.45h2.44V32.8h1.41v1.66h-1.41V39.6c0,.74.15,1,.87,1a2.7,2.7,0,0,0,.54,0v1.67c-.53,0-1,.1-1.58.1-1.9,0-2.27-.58-2.27-2.47V34.45h-1.23V32.79h1.23Zm8.45,2.47c2.93-.06,3.73,1.69,3.73,5s-1,5-3.73,5c-2.93.06-3.73-1.69-3.73-5s.95-5,3.73-5m0,8.32c1,0,1.31-1,1.31-3.33s-.33-3.34-1.31-3.34c-1.2,0-1.31,1.39-1.31,3.34s.1,3.33,1.31,3.33m5.1-8.09h2.32v1.27h0a2.46,2.46,0,0,1,2.19-1.51,2.85,2.85,0,0,1,.44,0v2.32c-.26,0-.49,0-.77,0a1.64,1.64,0,0,0-1.8,1.71v5.69h-2.43Zm6.29-3.27H132v2.08h-2.44Zm0,3.24H132v9.47h-2.44Zm6.07,5.12v.76c0,1.11.3,2.21,1.2,2.21s1.14-.62,1.29-1.79h2.18c-.08,2.21-1.14,3.46-3.43,3.46-3.52,0-3.66-2.72-3.66-5.07,0-2.54.49-4.9,3.77-4.9,2.83,0,3.46,1.9,3.46,4.81v.55Zm2.47-1.45c0-1.45-.22-2.25-1.24-2.25s-1.25,1-1.25,1.88v.37Zm5.46,2.72v.32a1.22,1.22,0,0,0,1.06,1.37h.21c.74,0,1.24-.36,1.24-1.12a1.13,1.13,0,0,0-.89-1.08l-1.7-.6a2.64,2.64,0,0,1-2-2.65c0-1.57,1-2.86,3.46-2.86,2.21,0,3.25,1,3.25,2.7v.4H146c0-1-.29-1.44-1.08-1.44a1,1,0,0,0-1.14,1c0,.46.24.84,1.06,1.11l1.48.49a2.53,2.53,0,0,1,2.1,2.72c0,2-1.48,3-3.52,3-2.73,0-3.46-1.19-3.46-3v-.34Z" transform="translate(0.01)" style="fill:#fff"/></svg>