<svg xmlns="http://www.w3.org/2000/svg" width="261" height="64" viewBox="0 0 261 64"><title>teeter-logo-new</title><path d="M117.89,12.18a6.26,6.26,0,0,0,.59-.4,5.82,5.82,0,0,1,2.61-1.28,7.91,7.91,0,0,1,2.71-.06,5.59,5.59,0,0,1,2.94,1.34,5.65,5.65,0,0,1,1.41,1.94,8.54,8.54,0,0,1,.72,3.15c0,.38,0,.76,0,1.14q0,9.3,0,18.61c0,.24,0,.48-.05.72a.87.87,0,0,1-.73.81,1.39,1.39,0,0,1-.37,0h-4.43a1.64,1.64,0,0,1-.45-.07.76.76,0,0,1-.55-.57,3.31,3.31,0,0,1-.1-.75q0-8.72,0-17.44a3.12,3.12,0,0,0-.28-1.44,2,2,0,0,0-1.56-1.14,2.32,2.32,0,0,0-1.9.42,2.28,2.28,0,0,0-.8,1.5,10.23,10.23,0,0,0-.13,1.47q0,8.19,0,16.37a6,6,0,0,1-.06.79c-.06.47-.35.75-.93.83a2,2,0,0,1-.3,0H111.8a.87.87,0,0,1-.85-.73,3,3,0,0,1-.1-.71q0-12.27,0-24.54a4.62,4.62,0,0,1,.1-.75.67.67,0,0,1,.54-.57,3.77,3.77,0,0,1,.82-.13c1.39,0,2.77,0,4.16,0a1.09,1.09,0,0,1,.75.22.9.9,0,0,1,.34.73A.46.46,0,0,0,117.89,12.18Z" transform="translate(0 0)" style="fill:#fff"/><path d="M146.25,26.12h-5c-.38,0-.56.18-.57.55,0,.68,0,1.37,0,2.05a3.5,3.5,0,0,0,2.07,3.1,5.84,5.84,0,0,0,2.45.53,14.22,14.22,0,0,0,2.79-.19,14.76,14.76,0,0,0,2.76-.76,2.58,2.58,0,0,1,.7-.16.62.62,0,0,1,.72.57,3.48,3.48,0,0,1,0,.53c0,1.24,0,2.48,0,3.72a3.56,3.56,0,0,1,0,.45.81.81,0,0,1-.34.56,4.2,4.2,0,0,1-1.31.56,17.89,17.89,0,0,1-2.61.58,22.14,22.14,0,0,1-4.22.18,14.12,14.12,0,0,1-2.73-.4,10.22,10.22,0,0,1-3-1.19,7.65,7.65,0,0,1-3-3.19,9.46,9.46,0,0,1-1-3.55c0-.65-.1-1.31-.11-2,0-2.5,0-5,0-7.48a18.91,18.91,0,0,1,.24-3.21,9,9,0,0,1,1.5-3.8,7.21,7.21,0,0,1,3.26-2.54,10.91,10.91,0,0,1,4.4-.71,16.61,16.61,0,0,1,1.85.11A7.89,7.89,0,0,1,150.27,13,8.21,8.21,0,0,1,152,16.5a15.08,15.08,0,0,1,.4,3.8c0,1.47,0,2.94,0,4.41a4.3,4.3,0,0,1,0,.49c-.06.53-.32.81-1,.89a5.55,5.55,0,0,1-.79,0Zm-3.1-5.4H145c.54,0,.74-.2.74-.76a10,10,0,0,0,0-1,10.38,10.38,0,0,0-.21-1.5A2.11,2.11,0,0,0,144.43,16a2.58,2.58,0,0,0-1.83-.21,2.17,2.17,0,0,0-1.51,1.14,3.86,3.86,0,0,0-.45,1.82c0,.46,0,.91,0,1.36s.1.58.57.58Z" transform="translate(0 0)" style="fill:#fff"/><path d="M183,38.42a19.65,19.65,0,0,1-4.06-.33,5.4,5.4,0,0,1-2.21-.82,1.47,1.47,0,0,1-.67-1.28c0-1.07,0-2.15,0-3.23a2.32,2.32,0,0,1,.12-.66.55.55,0,0,1,.61-.41,5.88,5.88,0,0,1,.86.13c.76.19,1.5.43,2.26.59a13.43,13.43,0,0,0,3.37.38,3,3,0,0,0,1.71-.49,2.05,2.05,0,0,0,.63-2.6,5,5,0,0,0-1.6-1.78c-1.16-.84-2.35-1.64-3.49-2.51a13.17,13.17,0,0,1-3-3,8,8,0,0,1-1.45-4.55,7.85,7.85,0,0,1,.59-3.22,6.57,6.57,0,0,1,2.65-3.07,8.48,8.48,0,0,1,2.74-1,18.36,18.36,0,0,1,4.11-.2,15.24,15.24,0,0,1,3,.32,5,5,0,0,1,2,.82A1.68,1.68,0,0,1,191.9,13c0,1.06,0,2.13,0,3.19a.75.75,0,0,1-.83.84,8.62,8.62,0,0,1-2.44-.23,2.27,2.27,0,0,1-.77-.28,3.42,3.42,0,0,0-1.8-.5,5.55,5.55,0,0,0-1.54.09,1.59,1.59,0,0,0-1.13,2.08,4,4,0,0,0,1.3,1.6c.95.7,1.93,1.36,2.9,2a17.87,17.87,0,0,1,3.74,3.32,7.71,7.71,0,0,1,1.28,2.38,9.47,9.47,0,0,1,.32,4.64,6.61,6.61,0,0,1-2.35,4.11A8.94,8.94,0,0,1,187.2,38a13.06,13.06,0,0,1-3.85.44Z" transform="translate(0 0)" style="fill:#fff"/><path d="M163.25,38.41a19.46,19.46,0,0,1-4.19-.32,5.33,5.33,0,0,1-2.18-.81A1.45,1.45,0,0,1,156.2,36c0-1.09,0-2.18,0-3.27a2.08,2.08,0,0,1,.12-.66.54.54,0,0,1,.59-.38,5.89,5.89,0,0,1,.89.14c.74.18,1.48.42,2.22.58a13.43,13.43,0,0,0,3.37.39,2.93,2.93,0,0,0,1.71-.48,2.06,2.06,0,0,0,.59-2.73,5.18,5.18,0,0,0-1.52-1.66c-1.16-.85-2.37-1.66-3.52-2.53a13,13,0,0,1-3.08-3.08,7.86,7.86,0,0,1-1.38-4.42,7.89,7.89,0,0,1,.56-3.19,6.6,6.6,0,0,1,2.69-3.13,8.46,8.46,0,0,1,2.7-1,18.26,18.26,0,0,1,4.15-.21,15.25,15.25,0,0,1,3,.32,5.44,5.44,0,0,1,1.83.67A1.78,1.78,0,0,1,172,13c0,1,0,2.08,0,3.11,0,.6-.26.85-.85.87a8.48,8.48,0,0,1-2.4-.22,2.29,2.29,0,0,1-.78-.28,3.33,3.33,0,0,0-1.76-.51,4.79,4.79,0,0,0-1.47.06,1.56,1.56,0,0,0-1.07,2.48,5.1,5.1,0,0,0,1.4,1.46c.86.62,1.74,1.2,2.61,1.8A18.15,18.15,0,0,1,171.33,25a7.84,7.84,0,0,1,1.57,3.16,9.65,9.65,0,0,1,.12,4,6.7,6.7,0,0,1-2.5,4.19,9.27,9.27,0,0,1-3.9,1.79A12.63,12.63,0,0,1,163.25,38.41Z" transform="translate(0 0)" style="fill:#fff"/><path d="M96.64,24.89c0-2.66,0-5.32,0-8,0-.54-.2-.72-.7-.78-.28,0-.55,0-.83,0-.6,0-.81-.21-.9-.8a4,4,0,0,1,0-.6c0-.76,0-1.52,0-2.28a3.87,3.87,0,0,1,.08-.75.63.63,0,0,1,.59-.55,6.52,6.52,0,0,1,1-.06c.67,0,.82-.32.81-.84,0-1.06,0-2.13,0-3.19,0-.14,0-.28,0-.42a1,1,0,0,1,.74-.94c1.36-.45,2.71-.92,4.08-1.34a2.79,2.79,0,0,1,1.17-.26c.38,0,.57.18.64.56a3.15,3.15,0,0,1,0,.57q0,2.49,0,5c0,.11,0,.23,0,.34a.5.5,0,0,0,.54.54h1.51a8.72,8.72,0,0,1,.94.07.86.86,0,0,1,.84.79,2.2,2.2,0,0,1,0,.45c0,.82,0,1.64,0,2.47s-.33,1.26-1.25,1.27h-1.82c-.72,0-.81.12-.81.81,0,4.44,0,8.89,0,13.33a5.75,5.75,0,0,0,.12,1.09,1.36,1.36,0,0,0,1.38,1.26,3,3,0,0,0,1.42-.08,2.12,2.12,0,0,1,.71-.06.43.43,0,0,1,.46.41,2.67,2.67,0,0,1,0,.49c0,1.13,0,2.25,0,3.38,0,.13,0,.25,0,.38a1.11,1.11,0,0,1-.93,1,9.21,9.21,0,0,1-1.61.19,25.21,25.21,0,0,1-2.57-.06,8.28,8.28,0,0,1-3.09-.8A4.23,4.23,0,0,1,97.2,35.3,8.46,8.46,0,0,1,96.64,32Z" transform="translate(0 0)" style="fill:#fff"/><path d="M77.46,27q0,4.9,0,9.8a3,3,0,0,1-.11.78.81.81,0,0,1-.76.59,3.13,3.13,0,0,1-.38,0H71.78a.91.91,0,0,1-.93-.9,7.87,7.87,0,0,1-.05-.95q0-9.61,0-19.21c0-.11,0-.23,0-.34,0-.43-.17-.59-.61-.6s-.61,0-.91,0c-.81,0-1.15-.25-1.18-1,0-1,0-2.07,0-3.11,0-.57.4-.82.93-.86s.86,0,1.29,0,.5-.16.35-.52a10.66,10.66,0,0,1-.53-1.21,3.94,3.94,0,0,1,.16-2.63,4.37,4.37,0,0,1,3-2.55,9.88,9.88,0,0,1,2.54-.36,21.81,21.81,0,0,1,2.23,0,6.31,6.31,0,0,1,1.81.33,1.09,1.09,0,0,1,.76,1.06c0,.47,0,.94,0,1.41s0,1.06,0,1.6a1.69,1.69,0,0,1,0,.41.48.48,0,0,1-.51.41c-.51,0-1,0-1.55-.06A4.13,4.13,0,0,0,78,9a1.15,1.15,0,0,0-1,1.51,1,1,0,0,0,1,.6l1.55,0a2,2,0,0,1,.34,0,1,1,0,0,1,.79,1c0,1,0,2,0,3,0,.58-.26.94-1.06,1-.42,0-.83,0-1.25,0a2,2,0,0,0-.34,0,.49.49,0,0,0-.47.46,2.61,2.61,0,0,0,0,.46Q77.46,22.06,77.46,27Z" transform="translate(0 0)" style="fill:#fff"/><path d="M90.83,24.47V36.85a2.64,2.64,0,0,1,0,.49.93.93,0,0,1-.88.84l-.26,0H85.3a1.55,1.55,0,0,1-.26,0,.85.85,0,0,1-.79-.7,5.15,5.15,0,0,1-.09-.9q0-11.15,0-22.29c0-.67,0-1.34,0-2a3.72,3.72,0,0,1,.05-.68,1,1,0,0,1,1-.89h4.46a1.31,1.31,0,0,1,.3,0,1,1,0,0,1,.83.9c0,.17,0,.35,0,.53Q90.84,18.32,90.83,24.47Z" transform="translate(0 0)" style="fill:#fff"/><path d="M213.85,56.44c0,.84,0,1.67-.07,2.5a3.54,3.54,0,0,1-.37,1.46,1.79,1.79,0,0,1-1.35,1,5.33,5.33,0,0,1-1.13,0c-.13,0-.26-.13-.38-.21a1.92,1.92,0,0,0-.24-.17c-.28-.1-.42,0-.42.28,0,.62,0,1.24,0,1.86a3.21,3.21,0,0,1,0,.38c0,.25-.14.36-.39.37-.54,0-1.09,0-1.63,0-.29,0-.39-.12-.39-.44,0-.63,0-1.26,0-1.9v-.19c0-.15,0-.35-.16-.38a.59.59,0,0,0-.47.13.71.71,0,0,1-.66.28,6.09,6.09,0,0,1-1.09-.09,1.77,1.77,0,0,1-1.23-1.12,4.44,4.44,0,0,1-.33-1.74q0-2.11,0-4.22a4.19,4.19,0,0,1,.42-1.91,1.94,1.94,0,0,1,1.62-1.08,4.54,4.54,0,0,1,.72,0,.64.64,0,0,1,.54.3.58.58,0,0,0,.3.19c.19.06.32,0,.34-.24a4.28,4.28,0,0,0,0-.49c0-.56,0-1.11,0-1.67s.09-.52.51-.52h1.4c.39,0,.5.1.51.49,0,.62,0,1.24,0,1.86a.91.91,0,0,0,0,.23c0,.11.06.31.12.32a.44.44,0,0,0,.37-.1c.45-.54,1.05-.42,1.61-.35a1.78,1.78,0,0,1,1.4,1,4.72,4.72,0,0,1,.43,2.06c0,.66,0,1.32,0,2Zm-7.83,0c0,.57,0,1.14,0,1.71a4.13,4.13,0,0,0,.1.75.61.61,0,0,0,.59.49.59.59,0,0,0,.62-.44,3.15,3.15,0,0,0,.12-.74c0-1.16,0-2.33,0-3.49a3.14,3.14,0,0,0-.12-.74.61.61,0,0,0-.62-.46.63.63,0,0,0-.6.49,3.84,3.84,0,0,0-.1.75C206,55.3,206,55.87,206,56.44Zm3.87,0c0,.59,0,1.19,0,1.78a3.07,3.07,0,0,0,.09.67.63.63,0,0,0,1.23,0,3,3,0,0,0,.12-.74c0-1.15,0-2.3,0-3.45a3,3,0,0,0-.14-.82.59.59,0,0,0-.61-.41A.62.62,0,0,0,210,54a3.14,3.14,0,0,0-.1.67C209.88,55.24,209.89,55.84,209.89,56.43Z" transform="translate(0 0)" style="fill:#fff"/><path d="M178.51,55.47v3.41c0,.48,0,.49.47.53s.42.11.42.45q0,1.6,0,3.19c0,.37-.1.47-.48.47h-1.36c-.34,0-.42-.06-.45-.41s0-.66,0-1c0-.11,0-.23,0-.34,0-.35-.07-.42-.43-.42h-2.88c-.28,0-.36.08-.37.36s0,.68,0,1a3,3,0,0,1,0,.42c0,.24-.13.35-.37.35-.51,0-1,0-1.55,0-.26,0-.37-.12-.37-.38q0-1.65,0-3.3c0-.3.1-.39.41-.43s.54-.15.65-.55a21.69,21.69,0,0,0,.71-4.75c0-.68,0-1.36.05-2a2.15,2.15,0,0,1,0-.27.41.41,0,0,1,.44-.37h1.1c1.16,0,2.32,0,3.48,0,.4,0,.57.13.57.56C178.51,53.14,178.51,54.31,178.51,55.47Zm-4.1,3.82a1,1,0,0,0,.29.12c.36,0,.73,0,1.09,0a.27.27,0,0,0,.28-.29c0-.09,0-.18,0-.27V54.07c0-.56,0-.59-.61-.57-.35,0-.38,0-.39.4,0,.79,0,1.59-.06,2.39a6.6,6.6,0,0,1-.38,2.26C174.56,58.77,174.51,59,174.42,59.29Z" transform="translate(0 0)" style="fill:#fff"/><path d="M50.94,55.49c.09-.17.16-.27.2-.38.47-1.11.93-2.21,1.39-3.32a.49.49,0,0,1,.53-.37c.45,0,.91,0,1.36,0s.47.12.49.48c0,.1,0,.2,0,.3v8.58c0,.48-.1.57-.58.57H53.13c-.46,0-.56-.1-.56-.55,0-1.08,0-2.15,0-3.22V57l-.07,0a.89.89,0,0,0-.17.19c-.23.49-.48,1-.68,1.47a.87.87,0,0,1-.82.55.4.4,0,0,1-.41-.22c-.13-.26-.25-.52-.37-.78s-.31-.71-.48-1.07c0-.06-.09-.1-.19-.21,0,.2,0,.32,0,.44v3.34a2.59,2.59,0,0,1,0,.34.37.37,0,0,1-.39.37c-.53,0-1.06,0-1.59,0a.33.33,0,0,1-.34-.3,1.45,1.45,0,0,1,0-.34V52c0-.08,0-.15,0-.23a.36.36,0,0,1,.39-.37c.52,0,1,0,1.55,0a.41.41,0,0,1,.39.3L50.28,54l.48,1.19A1.74,1.74,0,0,0,50.94,55.49Z" transform="translate(0 0)" style="fill:#fff"/><path d="M143.3,51.92a6.24,6.24,0,0,1,1.07-.42,2.37,2.37,0,0,1,2.26.49,2,2,0,0,1,.59,1.08,7.28,7.28,0,0,1,.15,1.31c0,1.39,0,2.78,0,4.17a4.21,4.21,0,0,1-.32,1.7,2,2,0,0,1-1.76,1.23,2.61,2.61,0,0,1-1.75-.32,1.08,1.08,0,0,0-.3-.08c0,.16,0,.28,0,.41,0,.6,0,1.19,0,1.79a2.6,2.6,0,0,1,0,.34c0,.24-.13.35-.37.35-.51,0-1,0-1.55,0s-.49-.13-.5-.51c0-.11,0-.23,0-.34q0-5.56,0-11.12c0-.39.12-.54.5-.56s1,0,1.55,0a.34.34,0,0,1,.39.32A.41.41,0,0,0,143.3,51.92Zm1.61,4.53c0-.59,0-1.19,0-1.78a2.33,2.33,0,0,0-.14-.73.78.78,0,0,0-1.39,0,3.19,3.19,0,0,0-.16.88c0,1.1,0,2.2,0,3.3a3.22,3.22,0,0,0,.06.6.77.77,0,0,0,.77.69.75.75,0,0,0,.81-.64,2.54,2.54,0,0,0,.06-.56C144.91,57.61,144.91,57,144.91,56.45Z" transform="translate(0 0)" style="fill:#fff"/><path d="M90.78,56.76a1.15,1.15,0,0,0-.15.22q-.57,1.46-1.14,2.92l-.34.92a.7.7,0,0,1-.76.54c-.47,0-.93,0-1.4,0-.31,0-.42-.13-.45-.44,0-.1,0-.2,0-.3V52.15c0-.1,0-.2,0-.3a.4.4,0,0,1,.44-.42h1.48a.39.39,0,0,1,.44.38,2.06,2.06,0,0,1,0,.34q0,1.73,0,3.45c0,.15,0,.3,0,.44l.08,0a2.83,2.83,0,0,0,.16-.3L90.61,52c.18-.47.33-.63.86-.61s.86,0,1.29,0,.47.14.49.49c0,.09,0,.18,0,.27V60.6c0,.11,0,.23,0,.34a.39.39,0,0,1-.44.41H91.32a.41.41,0,0,1-.45-.4,2.72,2.72,0,0,1,0-.3V56.79Z" transform="translate(0 0)" style="fill:#fff"/><path d="M219.77,56.76c-.06.12-.12.23-.17.35l-1,2.54c-.16.43-.32.85-.49,1.27a.62.62,0,0,1-.63.44H216c-.32,0-.42-.11-.46-.43,0-.11,0-.23,0-.34V52.16a2.8,2.8,0,0,1,0-.3c0-.3.16-.43.47-.43h1.44a.41.41,0,0,1,.46.43c0,.1,0,.2,0,.3V56l.08,0a.9.9,0,0,0,.15-.21l1.15-3,.4-1a.59.59,0,0,1,.61-.41h1.44c.36,0,.48.12.49.47,0,.1,0,.2,0,.3v8.58c0,.49-.09.57-.58.57h-1.33c-.31,0-.42-.11-.45-.43,0-.1,0-.2,0-.3V57.16c0-.13,0-.26,0-.39Z" transform="translate(0 0)" style="fill:#fff"/><path d="M163,55.83c.22.14.42.25.59.39a2.34,2.34,0,0,1,.86,1.74,3.13,3.13,0,0,1-.62,2.35,2.54,2.54,0,0,1-1.11.76,4,4,0,0,1-1.36.28H158.1c-.38,0-.48-.1-.51-.49,0-.09,0-.18,0-.27V52.17c0-.68.06-.74.73-.74,1.06,0,2.12,0,3.18,0a2.55,2.55,0,0,1,2.14,1.09,2.39,2.39,0,0,1-.47,3.14ZM160,58.25h0c0,.29,0,.58,0,.87s.08.29.31.29a2.56,2.56,0,0,0,.56-.05,1.16,1.16,0,0,0,.7-1.79,1.14,1.14,0,0,0-1.09-.54c-.41,0-.48.07-.49.49C160,57.76,160,58,160,58.25Zm0-4h0v.19c0,.69.18.82.84.62l0,0a.83.83,0,0,0,.48-1.08,1,1,0,0,0-1.06-.54c-.19,0-.28.08-.29.27S160,54,160,54.22Z" transform="translate(0 0)" style="fill:#fff"/><path d="M129.65,55.84c.21.14.41.25.59.38A2.32,2.32,0,0,1,131.1,58a3.16,3.16,0,0,1-.61,2.35,2.51,2.51,0,0,1-1.11.76,4,4,0,0,1-1.4.28H124.8c-.39,0-.49-.1-.51-.49,0-.1,0-.2,0-.3V52.17c0-.09,0-.18,0-.27,0-.36.14-.48.49-.48,1.17,0,2.35,0,3.52,0A2.34,2.34,0,0,1,130.56,53a2.31,2.31,0,0,1-.67,2.61Zm-2.93,2.4h0c0,.29,0,.58,0,.87s.08.31.33.31a2.78,2.78,0,0,0,.56-.06,1.18,1.18,0,0,0-.45-2.32c-.36,0-.44.08-.45.44S126.72,58,126.72,58.24Zm.46-4.88c-.44,0-.45,0-.46.48,0,.2,0,.41,0,.61,0,.65.1.73.73.61a.82.82,0,0,0,.68-.72.79.79,0,0,0-.42-.82A3.1,3.1,0,0,0,127.18,53.36Z" transform="translate(0 0)" style="fill:#fff"/><path d="M193.72,57.3c-.51-.06-.55,0-.72.39-.43,1.06-.87,2.12-1.29,3.18a.68.68,0,0,1-.75.49c-.51,0-1,0-1.55,0s-.53-.12-.36-.52c.29-.67.58-1.34.87-2l.79-1.8c.14-.33.13-.39-.15-.61a3.32,3.32,0,0,0-.39-.29,1.82,1.82,0,0,1-.9-1.45,2.72,2.72,0,0,1,.83-2.48,2.91,2.91,0,0,1,2-.76c1.21,0,2.42,0,3.63,0,.38,0,.5.12.52.49,0,.09,0,.18,0,.27v8.43c0,.69-.06.75-.76.75h-1.17c-.4,0-.53-.13-.54-.55V57.73C193.74,57.6,193.73,57.46,193.72,57.3Zm0-2.91v-.76c0-.13,0-.24-.19-.24a2.19,2.19,0,0,0-1.25.18.91.91,0,0,0-.44.93.84.84,0,0,0,.56.78,2.54,2.54,0,0,0,1.08.13c.18,0,.24-.11.24-.27S193.74,54.65,193.74,54.39Z" transform="translate(0 0)" style="fill:#fff"/><path d="M22.31,56.42v4.14a3.19,3.19,0,0,1,0,.38c0,.32-.16.41-.47.42H20.36c-.37,0-.46-.09-.48-.47,0-.11,0-.23,0-.34V54.24c0-.1,0-.2,0-.3,0-.37-.06-.42-.42-.43H19a.26.26,0,0,0-.28.28c0,.1,0,.2,0,.3,0,1,0,2,0,3a10.44,10.44,0,0,1-.33,2.51,2.4,2.4,0,0,1-1.87,1.82,5.36,5.36,0,0,1-1.39.07c-.39,0-.48-.14-.5-.52s0-.68,0-1,.11-.49.48-.49c.71,0,.94-.27,1.11-.95a6,6,0,0,0,.13-1c.11-1.47.11-2.93.1-4.4,0-.37,0-.73,0-1.1s.08-.57.58-.57h4.73c.51,0,.62.11.62.62C22.32,53.51,22.31,55,22.31,56.42Z" transform="translate(0 0)" style="fill:#fff"/><path d="M38.93,56.42v4.25c0,.11,0,.23,0,.34s-.11.33-.33.34c-.58,0-1.16,0-1.74,0-.2,0-.29-.14-.33-.31a1.35,1.35,0,0,1,0-.3V57.59c0-.4,0-.43-.44-.43h-.79c-.37,0-.41,0-.41.42,0,1,0,2.05,0,3.08a2.56,2.56,0,0,1,0,.38.33.33,0,0,1-.35.32c-.57,0-1.14,0-1.7,0-.2,0-.33-.14-.36-.37a2.05,2.05,0,0,1,0-.34V52.09a2,2,0,0,1,0-.3.4.4,0,0,1,.41-.36c.53,0,1.06,0,1.59,0,.29,0,.4.12.42.42s0,.41,0,.61c0,.72,0,1.44,0,2.17,0,.41,0,.45.46.46H36c.42,0,.46,0,.46-.46,0-.84,0-1.67,0-2.51,0-.09,0-.18,0-.27,0-.29.13-.42.42-.42.52,0,1,0,1.55,0,.33,0,.43.1.43.43,0,.76,0,1.52,0,2.28S38.93,55.66,38.93,56.42Z" transform="translate(0 0)" style="fill:#fff"/><path d="M237.4,56.39v4.29a3.25,3.25,0,0,1,0,.34c0,.22-.11.32-.33.33-.57,0-1.13,0-1.7,0A.34.34,0,0,1,235,61a2.56,2.56,0,0,1,0-.3V57.62c0-.43,0-.46-.44-.46h-.76c-.4,0-.44,0-.44.43,0,.87,0,1.75,0,2.62,0,.23,0,.46,0,.68s-.11.46-.45.46c-.52,0-1,0-1.55,0-.28,0-.4-.14-.43-.42,0-.11,0-.23,0-.34V52.16c0-.1,0-.21,0-.3a.42.42,0,0,1,.47-.43h1.48c.39,0,.49.11.5.5,0,.76,0,1.52,0,2.28,0,.16,0,.33,0,.49s.06.36.35.37.6,0,.91,0,.37-.07.38-.39c0-.82,0-1.64,0-2.47v-.3c0-.36.11-.48.47-.49h1.48c.38,0,.47.09.47.48C237.4,53.4,237.4,54.9,237.4,56.39Z" transform="translate(0 0)" style="fill:#fff"/><path d="M187.59,56.4v4.14c0,.1,0,.2,0,.3,0,.41-.12.51-.53.52h-1.44c-.34,0-.45-.1-.48-.44,0-.11,0-.23,0-.34V54.12c0-.61,0-.62-.61-.62h-.15c-.39,0-.43,0-.43.44,0,1,0,2.08,0,3.11a9,9,0,0,1-.42,2.76,2.33,2.33,0,0,1-1.78,1.56,5.18,5.18,0,0,1-1.39.07c-.39,0-.48-.13-.49-.52s0-.73,0-1.1.12-.42.42-.41c.67,0,1.08-.24,1.17-1.14s.17-1.94.21-2.91,0-2.1,0-3.15c0-.09,0-.18,0-.27,0-.41.15-.55.53-.54.62,0,1.23,0,1.85,0H187c.55,0,.63.08.63.65Q187.59,54.24,187.59,56.4Z" transform="translate(0 0)" style="fill:#fff"/><path d="M101.55,56.39v4.29c0,.11,0,.23,0,.34s-.1.33-.36.34H99.56c-.29,0-.38-.1-.39-.39s0-.53,0-.8V57.58c0-.38,0-.42-.4-.43h-.87c-.32,0-.36,0-.38.38s0,.48,0,.72v2.39a2.58,2.58,0,0,1,0,.34c0,.27-.12.36-.39.36q-.81,0-1.62,0c-.25,0-.35-.12-.39-.37a2.59,2.59,0,0,1,0-.34V52.1c0-.08,0-.15,0-.23,0-.31.14-.44.45-.44h1.55c.27,0,.38.11.42.39a2.57,2.57,0,0,1,0,.34v2.36a2.58,2.58,0,0,0,0,.34.22.22,0,0,0,.22.21c.38,0,.76,0,1.14,0,.22,0,.28-.1.28-.36,0-.86,0-1.72,0-2.58,0-.1,0-.2,0-.3s.12-.38.37-.38c.55,0,1.11,0,1.67,0,.24,0,.33.12.35.36s0,.23,0,.34C101.55,53.55,101.55,55,101.55,56.39Z" transform="translate(0 0)" style="fill:#fff"/><path d="M136.54,61a8.45,8.45,0,0,1-1,.41,2.25,2.25,0,0,1-2.8-1.53,4.51,4.51,0,0,1-.1-2.54,3.06,3.06,0,0,1,1.65-2.1c.65-.33,1.33-.6,2-.88.17-.07.33-.12.34-.35a.44.44,0,0,0-.3-.44,1.69,1.69,0,0,0-.54-.15,4.17,4.17,0,0,0-1.53.14c-.2.06-.41.11-.62.16-.37.07-.52,0-.53-.43s0-.53,0-.8a.73.73,0,0,1,.43-.7,3.44,3.44,0,0,1,1.5-.33,7.29,7.29,0,0,1,2.07.11,2.17,2.17,0,0,1,1.75,1.33,4.68,4.68,0,0,1,.24,1.45c0,2.07,0,4.15,0,6.23a2,2,0,0,1,0,.34c-.07.37-.18.46-.56.46s-.91,0-1.36,0c-.25,0-.42,0-.49-.31C136.59,61,136.55,61,136.54,61Zm0-4.7a1.43,1.43,0,0,0-.35.09,5.82,5.82,0,0,0-.7.51,1.85,1.85,0,0,0-.37,2,.68.68,0,0,0,.8.41.71.71,0,0,0,.62-.7c0-.47,0-.93,0-1.4Z" transform="translate(0 0)" style="fill:#fff"/><path d="M75.41,61a8.59,8.59,0,0,1-1.06.42,2.25,2.25,0,0,1-2.83-1.59,4.49,4.49,0,0,1,.06-2.94,3,3,0,0,1,1.49-1.64c.65-.32,1.33-.59,2-.88.17-.07.34-.11.34-.34a.44.44,0,0,0-.28-.45,1.69,1.69,0,0,0-.54-.15,4.17,4.17,0,0,0-1.53.14c-.2.06-.41.11-.62.16-.38.08-.53,0-.54-.42s0-.56,0-.84a.7.7,0,0,1,.41-.66,3.49,3.49,0,0,1,1.54-.34,7.46,7.46,0,0,1,2,.11,2.27,2.27,0,0,1,1.75,1.29,3.82,3.82,0,0,1,.25,1.49c0,2.07,0,4.15,0,6.22a2.08,2.08,0,0,1,0,.27c-.06.41-.2.57-.61.55s-.86,0-1.29,0c-.25,0-.45,0-.52-.3A.33.33,0,0,0,75.41,61Zm0-4.68a1.24,1.24,0,0,0-.33.07,5,5,0,0,0-.78.59A1.76,1.76,0,0,0,74,58.8a.67.67,0,0,0,.83.48.71.71,0,0,0,.62-.74c0-.55,0-1.11,0-1.67C75.42,56.7,75.42,56.53,75.42,56.3Z" transform="translate(0 0)" style="fill:#fff"/><path d="M11.06,61A8.07,8.07,0,0,1,10,61.4a2.25,2.25,0,0,1-2.81-1.58,4.46,4.46,0,0,1,0-2.9,3,3,0,0,1,1.5-1.69c.66-.33,1.35-.61,2-.9.16-.07.31-.12.31-.32a.4.4,0,0,0-.25-.43,2.22,2.22,0,0,0-.57-.18,4.08,4.08,0,0,0-1.5.13c-.22.06-.44.12-.66.17-.38.08-.53,0-.53-.41s0-.56,0-.84A.7.7,0,0,1,8,51.78a3.44,3.44,0,0,1,1.5-.34,7.59,7.59,0,0,1,2.07.11A2.19,2.19,0,0,1,13.4,53.2a5,5,0,0,1,.13,1.09c0,2.1,0,4.2,0,6.31a1.7,1.7,0,0,1,0,.41.39.39,0,0,1-.43.35H11.47a.29.29,0,0,1-.3-.17A1.72,1.72,0,0,0,11.06,61Zm0-4.68a.82.82,0,0,0-.29.06,5.35,5.35,0,0,0-.83.65,1.72,1.72,0,0,0-.29,1.81.65.65,0,0,0,.81.45.68.68,0,0,0,.63-.73c0-.66,0-1.32,0-2C11.07,56.51,11.06,56.43,11,56.31Z" transform="translate(0 0)" style="fill:#fff"/><path d="M60.48,61a8.21,8.21,0,0,1-1,.39,2.28,2.28,0,0,1-3-1.72,4.37,4.37,0,0,1,.16-2.89,3,3,0,0,1,1.44-1.54c.65-.33,1.33-.6,2-.88.17-.07.33-.12.33-.35a.44.44,0,0,0-.29-.44,1.73,1.73,0,0,0-.5-.14,4.36,4.36,0,0,0-1.54.13c-.23.06-.46.13-.7.17s-.47-.06-.48-.4,0-.58,0-.87a.68.68,0,0,1,.39-.64A3.48,3.48,0,0,1,59,51.43a7.33,7.33,0,0,1,2,.11,2.31,2.31,0,0,1,1.62,1,2.59,2.59,0,0,1,.31.84A8.08,8.08,0,0,1,63,54.67c0,1.92,0,3.85,0,5.77a3.15,3.15,0,0,1,0,.57.38.38,0,0,1-.42.35H60.92a.28.28,0,0,1-.32-.2A.48.48,0,0,0,60.48,61Zm0-4.65c-.32,0-.36.08-.73.34a1.84,1.84,0,0,0-.71,2,.75.75,0,0,0,1.48-.16c0-.65,0-1.29,0-1.93C60.51,56.52,60.5,56.44,60.48,56.33Z" transform="translate(0 0)" style="fill:#fff"/><path d="M258.51,61a8.85,8.85,0,0,1-1,.4,2.27,2.27,0,0,1-2.93-1.7,4.56,4.56,0,0,1,0-2.47,3.07,3.07,0,0,1,1.62-2c.65-.33,1.33-.6,2-.88.16-.06.31-.11.32-.32a.41.41,0,0,0-.26-.46,2,2,0,0,0-.54-.16,4.2,4.2,0,0,0-1.54.13c-.2.06-.41.11-.62.16-.4.08-.54,0-.55-.43s0-.56,0-.84a.68.68,0,0,1,.39-.64,3.32,3.32,0,0,1,1.49-.35,7.25,7.25,0,0,1,2.1.11,2.27,2.27,0,0,1,1.58,1,2.61,2.61,0,0,1,.31.84,7.3,7.3,0,0,1,.09,1.25c0,1.94,0,3.87,0,5.81a2.76,2.76,0,0,1,0,.53.39.39,0,0,1-.44.38h-1.59a.27.27,0,0,1-.3-.18A.8.8,0,0,0,258.51,61Zm0-4.71a2.83,2.83,0,0,0-.41.15c-.17.1-.33.24-.49.35a1.85,1.85,0,0,0-.53,2.09.75.75,0,0,0,1.43-.26c0-.52,0-1,0-1.56Z" transform="translate(0 0)" style="fill:#fff"/><path d="M30.8,56.45c0,.79,0,1.6-.08,2.39A2.74,2.74,0,0,1,29.41,61a3.2,3.2,0,0,1-1.47.43,6.59,6.59,0,0,1-1.54-.07,2.76,2.76,0,0,1-2.26-2.32A7.89,7.89,0,0,1,24,57.63c0-.95,0-1.9,0-2.85A4.34,4.34,0,0,1,24.38,53a2.58,2.58,0,0,1,1.83-1.49,4.83,4.83,0,0,1,2.43,0,2.61,2.61,0,0,1,1.86,1.63,4.08,4.08,0,0,1,.28,1.52v1.74Zm-2.47,0h0V56c0-.58,0-1.17,0-1.75a.82.82,0,0,0-.51-.77.9.9,0,0,0-1.31.79c0,1.4,0,2.81,0,4.21a2.05,2.05,0,0,0,0,.26.9.9,0,0,0,1.34.68.92.92,0,0,0,.49-.84C28.34,57.86,28.33,57.16,28.33,56.45Z" transform="translate(0 0)" style="fill:#fff"/><path d="M155.84,56.5c0,.78,0,1.57-.08,2.35A2.72,2.72,0,0,1,154.44,61a3.27,3.27,0,0,1-1.55.43,5.74,5.74,0,0,1-1.51-.09,2.62,2.62,0,0,1-2.09-1.86,5.51,5.51,0,0,1-.22-1.45c0-1.11,0-2.23,0-3.34a4.1,4.1,0,0,1,.34-1.66,2.56,2.56,0,0,1,1.76-1.49,4.72,4.72,0,0,1,2.58,0,2.62,2.62,0,0,1,1.89,1.89,4.73,4.73,0,0,1,.18,1.39c0,.54,0,1.09,0,1.63Zm-2.47-.08h0c0-.73,0-1.47,0-2.2a.84.84,0,0,0-.86-.83.88.88,0,0,0-1,.78,5,5,0,0,0,0,.68q0,1.61,0,3.23a5.14,5.14,0,0,0,0,.68.9.9,0,0,0,1.29.68.92.92,0,0,0,.53-.85C153.38,57.86,153.38,57.14,153.38,56.42Z" transform="translate(0 0)" style="fill:#fff"/><path d="M115.89,56.45c0-.6,0-1.19,0-1.79a3.85,3.85,0,0,1,.46-1.86A2.57,2.57,0,0,1,118,51.56a4.75,4.75,0,0,1,2.51,0,2.7,2.7,0,0,1,2,2.43,9.19,9.19,0,0,1,.06,1.17c0,1,0,2,0,3a3.75,3.75,0,0,1-.5,2,2.61,2.61,0,0,1-1.79,1.2,5.19,5.19,0,0,1-2.18,0,2.6,2.6,0,0,1-2-1.61,4.29,4.29,0,0,1-.3-1.63C115.89,57.56,115.89,57,115.89,56.45Zm4.32,0h0c0-.71,0-1.42,0-2.12a.88.88,0,0,0-.3-.71.92.92,0,0,0-1.52.54,3.66,3.66,0,0,0-.06.68c0,1.1,0,2.2,0,3.3a4.09,4.09,0,0,0,.06.64.84.84,0,0,0,.75.74.85.85,0,0,0,1-.55,2.18,2.18,0,0,0,.12-.7C120.22,57.66,120.21,57.05,120.21,56.45Z" transform="translate(0 0)" style="fill:#fff"/><path d="M239.22,56.39c0-.62,0-1.24,0-1.86a3.61,3.61,0,0,1,.45-1.71,2.66,2.66,0,0,1,1.79-1.28,5,5,0,0,1,2.21,0,2.64,2.64,0,0,1,2.11,2.16A8,8,0,0,1,245.9,55c0,.49,0,1,0,1.48s-.08.52-.5.53-.91,0-1.36,0h-2c-.26,0-.34.06-.34.29a4.51,4.51,0,0,0,.08,1,1.11,1.11,0,0,0,.65.74,2.85,2.85,0,0,0,1.66.17,12.36,12.36,0,0,0,1.21-.28,1.44,1.44,0,0,1,.22-.05c.19,0,.31.06.31.24,0,.53,0,1.06,0,1.59,0,.23-.19.32-.37.37a10.73,10.73,0,0,1-1.28.29,6,6,0,0,1-2.94-.26,2.86,2.86,0,0,1-1.88-2.23,6.63,6.63,0,0,1-.1-1.09c0-.48,0-1,0-1.44Zm3.32-1.31H243c.39,0,.49-.11.47-.51a3.26,3.26,0,0,0-.09-.56.78.78,0,0,0-.8-.62.81.81,0,0,0-.87.58,4.3,4.3,0,0,0-.09.83c0,.18.09.28.28.28Z" transform="translate(0 0)" style="fill:#fff"/><path d="M83.55,55.93a2.81,2.81,0,0,0,.22.18,2.33,2.33,0,0,1,1.17,2,3.57,3.57,0,0,1-.21,1.64,2.64,2.64,0,0,1-1.35,1.41,3.86,3.86,0,0,1-1.65.34,8.38,8.38,0,0,1-1.66-.1c-.51-.11-.7-.29-.7-.81,0-.32,0-.63,0-.95s.07-.42.43-.41.52,0,.79.07a2.26,2.26,0,0,0,1-.06,1,1,0,0,0,.72-1,1.07,1.07,0,0,0-.75-1.07,2.48,2.48,0,0,0-.56-.09c-.24,0-.48,0-.72,0s-.4-.11-.4-.43,0-.73,0-1.1.12-.4.42-.41.61,0,.91,0a.82.82,0,1,0,0-1.65,6.13,6.13,0,0,0-1.06,0c-.78.1-.7-.1-.69-.62,0-.23,0-.46,0-.68s.07-.43.36-.5a8.37,8.37,0,0,1,1.3-.21,5.28,5.28,0,0,1,1.62.11,2.23,2.23,0,0,1,1.85,2,4.77,4.77,0,0,1,0,.87,1.69,1.69,0,0,1-.72,1.23Z" transform="translate(0 0)" style="fill:#fff"/><path d="M87.49,8.65H85.34a2,2,0,0,1-.45,0,.78.78,0,0,1-.65-.65,4,4,0,0,1-.08-.64c0-1,0-1.95,0-2.92a5.15,5.15,0,0,1,.08-.68.94.94,0,0,1,.95-.77c1.51,0,3,0,4.54,0,.88,0,1.08.48,1.11,1.11s0,1,0,1.48V7.4a2.47,2.47,0,0,1,0,.38.91.91,0,0,1-1,.86c-.42,0-.83,0-1.25,0Z" transform="translate(0 0)" style="fill:#fff"/><path d="M0,56.39c0-.84.07-1.68.15-2.5a2.49,2.49,0,0,1,2.16-2.34,8.23,8.23,0,0,1,2.07-.11,3.65,3.65,0,0,1,.78.13.52.52,0,0,1,.43.55c0,.43,0,.86,0,1.29s-.08.43-.43.42-.55-.06-.83-.06a7.54,7.54,0,0,0-1,0,1,1,0,0,0-.83,1,5.41,5.41,0,0,0,0,.61c0,.85,0,1.69,0,2.55A1.13,1.13,0,0,0,3.09,59a1.45,1.45,0,0,0,.92.14l1-.17c.38-.06.53,0,.53.42s0,.91,0,1.37a.53.53,0,0,1-.44.58,6.38,6.38,0,0,1-3.39-.17,2.38,2.38,0,0,1-1.2-.93A2.44,2.44,0,0,1,.16,59C.09,58.16,0,57.27,0,56.39Z" transform="translate(0 0)" style="fill:#fff"/><path d="M247.48,56.45c0-.86,0-1.7.13-2.53a2.5,2.5,0,0,1,2.2-2.38,8.37,8.37,0,0,1,2-.11,3.8,3.8,0,0,1,.82.14.51.51,0,0,1,.42.55c0,.44,0,.89,0,1.33s-.09.38-.39.38-.55-.05-.82-.06a6.83,6.83,0,0,0-1,0,1,1,0,0,0-.81.88,2.23,2.23,0,0,0,0,.41c0,.9,0,1.8,0,2.69,0,.09,0,.18,0,.27a1.1,1.1,0,0,0,1.19,1.1,10,10,0,0,0,1.16-.13l.14,0c.42-.08.56,0,.56.46s0,.86,0,1.29a.55.55,0,0,1-.48.62,7.42,7.42,0,0,1-2.44.06,3.53,3.53,0,0,1-1.28-.41,2.32,2.32,0,0,1-1.21-1.93C247.54,58.19,247.52,57.31,247.48,56.45Z" transform="translate(0 0)" style="fill:#fff"/><path d="M225.36,57.36V54c0-.52,0-.52-.54-.52-.34,0-.68,0-1,0s-.44-.1-.45-.46,0-.76,0-1.14.13-.45.47-.45h5.49c.36,0,.48.1.5.46a8.33,8.33,0,0,1,0,1.14c0,.3-.07.46-.47.46l-1.1,0c-.4,0-.42,0-.42.44v6.61a3.25,3.25,0,0,1,0,.34c0,.34-.17.46-.51.47h-1.44c-.37,0-.49-.12-.51-.5,0-.2,0-.41,0-.61Q225.36,58.81,225.36,57.36Z" transform="translate(0 0)" style="fill:#fff"/><path d="M112.89,57.37v3.22a2.44,2.44,0,0,1,0,.34c0,.31-.15.41-.47.42h-1.51c-.29,0-.41-.11-.45-.4a2.52,2.52,0,0,1,0-.38V54c0-.55,0-.55-.55-.55-.34,0-.68,0-1,0s-.42-.1-.44-.44,0-.73,0-1.1.12-.51.53-.51h5.45c.35,0,.47.1.48.44s0,.79,0,1.18-.11.41-.45.43-.76,0-1.13,0-.42,0-.42.41Q112.89,55.65,112.89,57.37Z" transform="translate(0 0)" style="fill:#fff"/><path d="M64.82,56.36V52.19c0-.1,0-.2,0-.3a.42.42,0,0,1,.48-.46h4.61c.44,0,.53.09.54.53s0,.73,0,1.1-.09.55-.53.55H67.69c-.4,0-.42,0-.42.43v6.56c0,.7,0,.75-.75.76-.42,0-.83,0-1.25,0s-.42-.14-.45-.44c0-.11,0-.23,0-.34Z" transform="translate(0 0)" style="fill:#fff"/><path d="M43,55.08h1.7c.39,0,.51.1.53.47s0,.76,0,1.14-.13.43-.45.44H41.17c-.29,0-.42-.12-.43-.41s0-.78,0-1.18.13-.45.47-.46Z" transform="translate(0 0)" style="fill:#fff"/><path d="M36.81,21.51V16.12c0-2.14,0-4.28,0-6.42,0-1.18,0-2.35.05-3.53a.92.92,0,0,1,.84-1,5.25,5.25,0,0,1,1-.09c2.64,0,5.27,0,7.91,0a14.23,14.23,0,0,1,3.3.37A8.91,8.91,0,0,1,54.46,8a8.47,8.47,0,0,1,1.71,2.75c.23.62.44,1.24.62,1.87A8.11,8.11,0,0,1,57.06,14a23.56,23.56,0,0,1,.18,2.42c0,3.21,0,6.43,0,9.64a16.86,16.86,0,0,1-1,6A8.61,8.61,0,0,1,53,36.25a9.6,9.6,0,0,1-2.1,1,11.08,11.08,0,0,1-3.74.62L38.67,38a3.22,3.22,0,0,1-1.23-.17.86.86,0,0,1-.58-.85c0-1-.06-1.95-.06-2.92q0-6.13,0-12.27C36.81,21.67,36.81,21.59,36.81,21.51Zm6.85.11v9a4.09,4.09,0,0,0,0,.61.86.86,0,0,0,.89.76c.69,0,1.39,0,2.08,0a3.39,3.39,0,0,0,1.8-.62,3.78,3.78,0,0,0,1.35-1.92,8.08,8.08,0,0,0,.44-2c.06-.64.16-1.28.17-1.93q0-2.35,0-4.71c0-1.44.08-2.88-.07-4.32a17.19,17.19,0,0,0-.28-2.06,5.34,5.34,0,0,0-1-2.12,3.17,3.17,0,0,0-1.85-1.17,10.9,10.9,0,0,0-2.68-.08.89.89,0,0,0-.87.81,4.58,4.58,0,0,0,0,.76Q43.66,17.12,43.66,21.62Z" transform="translate(0 0)" style="fill:#fff"/><rect x="196.2" y="10.1" width="64.46" height="28.58" style="fill-opacity:0"/><path d="M260.67,24.41q0,6.51,0,13a1.41,1.41,0,0,1-.09.54.46.46,0,0,1-.42.33.26.26,0,0,0-.15,0,1,1,0,0,1-.69.12h-3.39a1.22,1.22,0,0,1-.33-.09.84.84,0,0,0-.14-.05.84.84,0,0,1-.53-.49,3,3,0,0,1-.13-1.39q0-6.59,0-13.18c0-.16,0-.33,0-.49s0-.2-.14-.21-.15.08-.18.17-.05.13-.07.19l-.16.43-.07.17-.38.91a6.24,6.24,0,0,1-.25.6,4.78,4.78,0,0,0-.45,1,7.09,7.09,0,0,1-.36.84c-.18.43-.36.86-.53,1.3s-.26.74-.45,1.09-.28.8-.46,1.18a1.5,1.5,0,0,1-.33.35.88.88,0,0,1-.71.22c-.47,0-.93,0-1.4,0a.52.52,0,0,1-.3-.12,2.17,2.17,0,0,1-.67-1c-.15-.45-.37-.88-.55-1.32s-.23-.62-.35-.93-.31-.8-.47-1.2-.3-.69-.44-1-.28-.7-.43-1.05-.24-.51-.34-.77-.18-.47-.27-.7a4.21,4.21,0,0,0-.26-.54s-.13-.06-.2-.06-.07.09-.08.14a.8.8,0,0,0,0,.19v14.8a1.16,1.16,0,0,1-.63.91,1.51,1.51,0,0,1-.75.12c-1.15,0-2.3,0-3.44,0a1.06,1.06,0,0,1-.91-.47,1.93,1.93,0,0,1-.14-.58.43.43,0,0,1,0-.1v-26a1,1,0,0,1,.28-.77,1,1,0,0,1,.7-.22c1.41,0,2.81,0,4.22,0a1.08,1.08,0,0,1,.53.2,1.5,1.5,0,0,1,.62.76,4.37,4.37,0,0,0,.24.51l.75,1.47.68,1.36.69,1.38.68,1.36c.23.46.46.93.69,1.39.15.32.29.63.45.95a6,6,0,0,0,.41.76c0,.08.2.1.31.11s.11-.1.14-.16l.42-.88c.18-.37.35-.74.54-1.11.06-.11.14-.21.19-.32l.7-1.43c.22-.45.45-.91.68-1.36s.53-1,.79-1.53c.1-.19.18-.4.28-.59l.61-1.2c.1-.19.2-.39.28-.59a1.69,1.69,0,0,1,1-1,.73.73,0,0,1,.22,0c1.32,0,2.65,0,4,0a.87.87,0,0,1,.94.95c0,2,0,3.91,0,5.87C260.67,19.57,260.67,22,260.67,24.41Z" transform="translate(0 0)" style="fill:#6785c1"/><path d="M196.2,24.3q0-6.5,0-13a1,1,0,0,1,.29-.77,1,1,0,0,1,.69-.21c2.87,0,5.74,0,8.61,0a1.68,1.68,0,0,1,.93.17c.09.06.25,0,.37.06.35.08.7.16,1,.27a5,5,0,0,1,.72.28,6.94,6.94,0,0,1,.72.39c.24.15.47.33.7.49l.39.3A7.87,7.87,0,0,1,212,14a5,5,0,0,1,.35.66c.09.18.18.36.26.54s.12.29.17.43c.12.34.24.68.34,1a1.48,1.48,0,0,1,.07.37c0,.32.22.6.2.94s0,1,.06,1.47c0,.06,0,.14,0,.18a.68.68,0,0,1,.12.54q0,4.26,0,8.53a1.47,1.47,0,0,1-.1.35,1.23,1.23,0,0,0-.05.25c0,.54-.05,1.07-.08,1.6a.15.15,0,0,1,0,.07,1.94,1.94,0,0,0-.22,1,3.4,3.4,0,0,1-.17.51c-.08.26-.13.53-.22.79s-.16.32-.23.49a8.76,8.76,0,0,1-.9,1.6,5.78,5.78,0,0,1-1.43,1.47c-.12.08-.23.18-.35.25-.45.26-.89.52-1.35.77a2.41,2.41,0,0,1-.34.09l-.47.17c-.09,0-.2,0-.29.05l-.43.11c-.19,0-.38.09-.57.11a4.58,4.58,0,0,1-.51,0c-.06,0-.13,0-.16,0s-.36.13-.55.13h-8.14a.84.84,0,0,1-.82-.72,8.59,8.59,0,0,1-.07-1Zm5.89.15v8.09c0,.06,0,.11,0,.17a.59.59,0,0,0,.66.63H204a3.24,3.24,0,0,0,1.27-.19,2.67,2.67,0,0,0,1.08-.68,3.79,3.79,0,0,0,.53-.63,8.27,8.27,0,0,0,.44-1.07c0-.1,0-.24.05-.33a2.16,2.16,0,0,0,.19-1c0-3.35,0-6.7,0-10a1.45,1.45,0,0,0,0-.32c-.06-.23-.12-.46-.18-.69a2.58,2.58,0,0,0-.07-.35c-.11-.3-.25-.6-.37-.9a2.67,2.67,0,0,0-1.07-1.21,1.9,1.9,0,0,0-.42-.21,1.28,1.28,0,0,0-.37-.11c-.18,0-.36,0-.52-.13s-.12,0-.18,0h-1.68a.61.61,0,0,0-.53.38,2.16,2.16,0,0,0-.09.55Z" transform="translate(0 0)" style="fill:#6785c1"/><path d="M217.32,24.74c0-2.09,0-3.8,0-5.52,0-.4,0-.8.08-1.2a.08.08,0,0,1,0-.05c.21-.22.1-.51.15-.76a2.48,2.48,0,0,1,.18-.87c.06-.1,0-.26.07-.39.08-.3.16-.59.26-.88a7.84,7.84,0,0,1,.36-.86,11.07,11.07,0,0,1,.56-1c.13-.19.31-.35.44-.54A5.39,5.39,0,0,1,221,11.34a7,7,0,0,1,1.1-.57c.2-.09.43-.13.63-.22a2.26,2.26,0,0,1,1-.22.24.24,0,0,0,.13,0c.2-.17.44-.09.67-.13a18.13,18.13,0,0,1,2.49-.07c.39,0,.78,0,1.16.08a2.35,2.35,0,0,1,.29.11c.17,0,.36.06.53.11s.57.2.85.31a5.88,5.88,0,0,1,.61.29,4.37,4.37,0,0,1,.91.54,11,11,0,0,1,.9.77c.37.42.68.9,1,1.36a4.29,4.29,0,0,1,.36.61c.11.24.2.49.3.73,0,.06.06.11.08.17s.09.28.14.42.13.44.18.66a1,1,0,0,1,0,.24,1.15,1.15,0,0,0,.12.56,1.37,1.37,0,0,1,.11.55c0,.21,0,.43,0,.65s0,.19,0,.24a.71.71,0,0,1,.11.51q0,5.17,0,10.35a5.56,5.56,0,0,1-.06.56c0,.3-.06.6-.1.9a2.61,2.61,0,0,1-.1.87c-.15.31,0,.65-.19.93a5,5,0,0,0-.22.92,6.72,6.72,0,0,1-.3.64l-.29.58c-.12.21-.24.43-.37.63a8.86,8.86,0,0,1-.54.73c-.17.21-.38.4-.57.59a2.34,2.34,0,0,1-.31.27c-.27.2-.54.4-.83.57a5.9,5.9,0,0,1-.67.3,3,3,0,0,0-.42.19,2.1,2.1,0,0,1-.89.26,6.16,6.16,0,0,0-.68.18l-.24,0-.55.08a4.17,4.17,0,0,1-.48.06h-1.8a1.12,1.12,0,0,1-.28-.08,1,1,0,0,0-.23-.06c-.37,0-.74,0-1.11-.09a6.13,6.13,0,0,1-.84-.23c-.16,0-.32-.1-.47-.16s-.39-.17-.57-.27-.43-.22-.64-.36a3.48,3.48,0,0,1-.56-.44c-.45-.45-.87-.92-1.31-1.39a.54.54,0,0,1-.08-.11c-.11-.19-.24-.36-.33-.56a4.84,4.84,0,0,1-.47-1.06c-.08-.33-.22-.64-.33-1,0-.12,0-.25-.08-.37a4.55,4.55,0,0,1-.25-1.53.24.24,0,0,0,0-.16c-.14-.14-.1-.31-.12-.48C217.24,28.37,217.38,26.37,217.32,24.74ZM228.75,24c-.06-1.55.07-3.46-.06-5.38,0-.44-.15-.86-.21-1.29a1.53,1.53,0,0,0-.07-.43,2.7,2.7,0,0,0-.9-1.21,1.67,1.67,0,0,0-.61-.29,5.32,5.32,0,0,0-1.18-.08,2,2,0,0,0-1.08.31c-.14.1-.32.16-.42.28-.23.32-.57.58-.58,1,0,0,0,.06,0,.1a4.19,4.19,0,0,0-.16.61c0,.25,0,.51-.13.73a.22.22,0,0,0,0,.11c0,.49-.08,1-.08,1.47,0,3.3-.1,6.6.07,9.9,0,.21,0,.42.13.59a.15.15,0,0,1,0,.11,2.56,2.56,0,0,0,.26,1.4,3.93,3.93,0,0,0,.51.8,2.14,2.14,0,0,0,1.54.63,11.07,11.07,0,0,0,1.28-.09.6.6,0,0,0,.29-.13,5.48,5.48,0,0,0,.71-.65,2.9,2.9,0,0,0,.42-.75c.11-.27,0-.59.23-.84a.12.12,0,0,0,0-.07c0-.55.07-1.09.07-1.64C228.75,27.63,228.75,26,228.75,24Z" transform="translate(0 0)" style="fill:#6785c1"/><rect width="30.81" height="43.34" style="fill-opacity:0"/><rect width="30.81" height="43.34" style="fill:#6785c1"/><path d="M6.24,6.38A1.14,1.14,0,0,1,7.38,5.24H13V35.9a1.52,1.52,0,0,1-1.51,1.52H7.38a1.14,1.14,0,0,1-1.14-1.14Z" transform="translate(0 0)" style="fill:#fff"/><path d="M13,5.24h9.76a1.14,1.14,0,0,1,1.14,1.14v3.76a1.14,1.14,0,0,1-1.14,1.14H13Z" transform="translate(0 0)" style="fill:#fff"/><path d="M13,17.93H20.7a1.14,1.14,0,0,1,1.14,1.14v3.57a1.14,1.14,0,0,1-1.14,1.14H13Z" transform="translate(0 0)" style="fill:#fff"/></svg>